<svg width="120" height="120" viewBox="0 0 120 120" fill="none" xmlns="http://www.w3.org/2000/svg">
    <path d="M58.5516 89.0832V80.8505C58.5516 80.2032 59.0763 79.6786 59.7235 79.6786H67.9219L58.5516 89.0832Z" fill="white"/>
    <path d="M82.964 89.0832C81.7497 87.8789 81.066 86.2399 81.0646 84.5297L81.0573 84.4324C81.0573 84.3569 81.1187 84.2954 81.1946 84.2949L84.7146 84.2775C84.7905 84.2771 84.8519 88.7143 84.8519 84.4135L84.8591 84.5232C84.8605 86.2261 84.1854 87.8598 82.9824 89.0649L82.964 89.0832Z" fill="white"/>
    <path d="M87.5711 59.0537L79.1787 59.0953C78.3226 59.0996 77.6288 59.7947 77.6288 60.6478C77.6288 61.5011 78.3226 62.1892 79.1787 62.185L86.0212 62.151V71.2317C86.0212 72.085 86.715 72.7731 87.5711 72.7689C88.4271 72.7647 89.121 72.0695 89.121 71.2164V60.5908C89.121 59.7376 88.427 59.0495 87.5711 59.0537Z" fill="white"/>
    <path d="M87.5711 59.0537L83.0663 59.0758L83.0468 62.1591L86.0211 62.1512V71.232C86.0211 72.0852 86.715 72.7733 87.571 72.7691C88.4271 72.7649 89.1209 72.0698 89.1209 71.2166V60.591C89.1211 59.7376 88.4271 59.0495 87.5711 59.0537Z" fill="white"/>
    <path d="M73.7282 32.3581L39.1063 30.0424C37.9777 29.9676 36.9988 30.8234 36.9232 31.9517L36.6524 36.0014H32.0508C30.92 36.0014 30 36.9214 30 38.0522V87.9115C30 89.0422 30.92 89.9622 32.0508 89.9622H58.5517C58.7814 89.9622 59.0089 89.8684 59.1718 89.7062L63.1724 85.7233C63.2131 85.732 63.2545 85.7389 63.2972 85.7417L70.1271 86.1985C71.2172 86.2705 72.2371 85.3838 72.3102 84.2892L75.6375 34.5413C75.7124 33.4248 74.8446 32.4328 73.7282 32.3581ZM59.4306 86.956V80.8506C59.4306 80.6891 59.5621 80.5576 59.7236 80.5576H65.8056L59.4306 86.956ZM70.5563 84.172C70.5277 84.349 70.4237 84.4399 70.2445 84.4447L64.8211 84.0819L68.542 80.3775C68.7077 80.2126 68.8009 79.9884 68.8009 79.7546V38.0523C68.8009 36.9215 67.8809 36.0015 66.7501 36.0015H57.6103C56.4739 36.0015 56.4739 37.7593 57.6103 37.7593H66.7501C66.9117 37.7593 67.0431 37.8908 67.0431 38.0523V78.7998H59.7236C58.5928 78.7998 57.6728 79.7198 57.6728 80.8506V88.2044H32.0508C31.8893 88.2044 31.7578 88.0729 31.7578 87.9115V38.0523C31.7578 37.8908 31.8893 37.7593 32.0508 37.7593H52.9298C54.0662 37.7593 54.0662 36.0015 52.9298 36.0015H38.4141L38.677 32.0691C38.7056 31.8921 38.8096 31.8013 38.9889 31.7965L73.6107 34.1121C73.7878 34.1407 73.8788 34.2446 73.8836 34.4239L70.5563 84.172Z" fill="#F37110"/>
    <path d="M61.3861 57.7791H37.415C36.9296 57.7791 36.5361 58.1726 36.5361 58.658C36.5361 59.1433 36.9296 59.5369 37.415 59.5369H61.3861C61.8716 59.5369 62.265 59.1433 62.265 58.658C62.265 58.1726 61.8716 57.7791 61.3861 57.7791Z" fill="#F37110"/>
    <path d="M61.3861 63.9061H37.415C36.9296 63.9061 36.5361 64.2996 36.5361 64.785C36.5361 65.2704 36.9296 65.6639 37.415 65.6639H61.3861C61.8716 65.6639 62.265 65.2704 62.265 64.785C62.265 64.2996 61.8716 63.9061 61.3861 63.9061Z" fill="#F37110"/>
    <path d="M36.5361 52.5308C36.5361 53.0162 36.9296 53.4097 37.415 53.4097H61.3861C61.8716 53.4097 62.265 53.0162 62.265 52.5308C62.265 52.0454 61.8716 51.6519 61.3861 51.6519H37.415C36.9296 51.6519 36.5361 52.0454 36.5361 52.5308Z" fill="#F37110"/>
    <path d="M40.7587 46.4037C40.7587 46.8891 41.1522 47.2826 41.6376 47.2826H57.1634C57.6488 47.2826 58.0423 46.8891 58.0423 46.4037C58.0423 45.9183 57.6488 45.5248 57.1634 45.5248H41.6376C41.1522 45.5248 40.7587 45.9183 40.7587 46.4037Z" fill="#F37110"/>
    <path d="M52.8229 81.4205C51.2421 81.4247 49.6614 81.4281 48.0807 81.4306C47.5493 81.4314 47.0181 81.4321 46.4869 81.4324C45.5242 81.4331 44.8756 81.2399 44.6599 80.181C44.4776 79.2857 43.211 79.406 42.9649 80.181C42.3567 82.0955 41.3508 81.3454 40.7874 80.0576C40.2252 78.7729 40.0811 77.335 39.8356 75.9677C39.6551 74.9631 38.1357 75.2447 38.1092 76.2014C38.0742 77.4613 37.9566 78.7011 37.6368 79.9231C37.3069 81.1838 36.8125 82.3954 36.3217 83.5999C35.8939 84.65 37.5952 85.1018 38.0167 84.0673C38.4516 82.9999 38.8871 81.9267 39.2112 80.8195C39.8135 82.268 41.0597 83.9063 42.8355 82.9408C43.1658 82.7611 43.4744 82.5058 43.7452 82.208C44.6686 83.2751 46.0431 83.1909 47.3292 83.1894C49.1605 83.1871 50.9918 83.1831 52.8231 83.1783C53.9539 83.1754 53.956 81.4175 52.8229 81.4205Z" fill="#F37110"/>
    <path d="M89.289 58.8796C88.8323 58.4252 88.2044 58.1921 87.5669 58.1749L86.9027 58.1782V56.922C86.9027 56.1569 86.4483 55.3486 85.7973 54.946V53.1767C85.7973 49.5358 80.1287 49.5516 80.1287 53.1938V54.9634C79.4655 55.3733 79.0207 56.1049 79.0207 56.9382V58.2252C76.095 58.4244 76.0867 62.8828 79.024 63.057C79.0427 66.9916 79.0418 70.8617 79.0207 74.8621C79.0149 75.9654 80.7725 76.03 80.7785 74.8714C80.7996 70.8676 80.8005 66.9941 80.7819 63.0562L85.1426 63.0345C85.1426 63.0345 85.1369 76.0245 85.1369 81.8764C85.1369 84.7285 80.7753 84.7475 80.7753 81.8468L80.7769 80.244C80.8454 79.1096 79.0909 79.0038 79.0222 80.138V81.642C79.0222 82.9311 79.4209 84.0228 80.1927 84.7907C80.2614 86.6298 81.0362 88.4093 82.3453 89.7075C82.7209 90.0801 83.2408 89.9662 83.6044 89.6861C84.9362 88.352 85.6867 86.5931 85.7335 84.7157C86.3137 84.1379 86.8946 83.5561 86.8946 81.5639L86.8953 73.554C88.4153 73.9863 90.0001 72.8101 90.0001 71.2166V60.5909C90.0001 59.9437 89.7476 59.336 89.289 58.8796ZM80.7785 58.2085V56.9381C80.7785 56.678 80.957 56.46 81.1972 56.3952L84.7158 56.3777C84.8142 56.4021 84.905 56.4486 84.9786 56.522C85.0858 56.6287 85.1449 56.7707 85.1449 56.922V58.187L80.7785 58.2085ZM82.9665 52.1148C83.506 52.1148 84.0394 52.6437 84.0394 53.1767V54.6024L81.8864 54.6131V53.1938C81.8865 52.6017 82.3707 52.1177 82.9665 52.1148ZM82.9652 87.7282C82.5566 87.149 82.261 86.4941 82.096 85.8056C82.3681 85.8645 82.6438 85.8952 82.9195 85.8952C83.2274 85.8952 83.5351 85.857 83.8381 85.7831C83.6771 86.482 83.3821 87.1409 82.9652 87.7282ZM88.2423 71.2166C88.2423 72.0487 86.9003 72.1142 86.9003 71.2319C86.9003 71.2319 86.9018 62.9146 86.9027 62.1522C86.9033 61.6605 86.4946 61.2723 86.017 61.2723L79.1746 61.3062C78.3259 61.3062 78.3457 59.9784 79.1832 59.9743L87.5756 59.9327C87.9814 59.9673 88.2036 60.1868 88.2422 60.5909V71.2166H88.2423Z" fill="#F37110"/>
    <circle cx="60" cy="60" r="49" stroke="#F37110" stroke-width="2"/>
    <circle cx="60" cy="60" r="59.5" stroke="#E5E5E5"/>
</svg>