<svg width="120" height="120" viewBox="0 0 120 120" fill="none" xmlns="http://www.w3.org/2000/svg">
    <circle cx="60" cy="60" r="49" stroke="#F37110" stroke-width="2"/>
    <circle cx="60" cy="60" r="59.5" stroke="#E5E5E5"/>
    <path d="M90 30H30V90H90V30Z" fill="white"/>
    <path fill-rule="evenodd" clip-rule="evenodd" d="M31.1719 31.2891H88.8281V37.1486H31.1719V31.2891ZM31.7719 36.5486H88.2281V31.8891H31.7719V36.5486Z" fill="white"/>
    <path fill-rule="evenodd" clip-rule="evenodd" d="M53.6533 37.1484H42.4058V39.6962C42.4058 41.098 43.5517 42.244 44.9535 42.244H51.1055C52.5073 42.244 53.6533 41.098 53.6533 39.6962V37.1484Z" fill="white"/>
    <path fill-rule="evenodd" clip-rule="evenodd" d="M42.4058 37.1484H53.6533V39.6962C53.6533 41.098 52.5073 42.244 51.1055 42.244H44.9535C43.5517 42.244 42.4058 41.098 42.4058 39.6962V37.1484ZM53.0533 37.7484H43.0058V39.6962C43.0058 40.7666 43.8831 41.644 44.9535 41.644H51.1055C52.176 41.644 53.0533 40.7666 53.0533 39.6962V37.7484Z" fill="white"/>
    <path fill-rule="evenodd" clip-rule="evenodd" d="M42.8068 56.2802V66.7228H53.2497V56.2802H42.8068ZM42.2068 67.3228H53.8497V55.6802H42.2068V67.3228Z" fill="white"/>
    <path fill-rule="evenodd" clip-rule="evenodd" d="M66.1467 62.0081V73.6505H77.7896V62.0081H71.9698H66.1467Z" fill="white"/>
    <path fill-rule="evenodd" clip-rule="evenodd" d="M66.1467 73.6505V62.0081H77.7896V73.6505H66.1467ZM77.1896 73.0505V62.6081H66.7467V73.0505H77.1896Z" fill="white"/>
    <path fill-rule="evenodd" clip-rule="evenodd" d="M38.2966 74.2506C39.7713 75.0695 40.7685 76.6434 40.7685 78.4505C40.7685 80.256 39.7716 81.8286 38.297 82.647C37.9532 82.8378 37.5835 82.9876 37.1943 83.0898C36.8113 83.1904 36.4095 83.2449 35.9951 83.247H84.0283C83.1845 83.247 82.3916 83.0293 81.7026 82.647C80.227 81.8284 79.2283 80.2552 79.2283 78.4505C79.2283 76.6419 80.2267 75.069 81.7014 74.2506C82.3853 73.8711 83.1717 73.6538 84.0084 73.6506H35.9719C36.8156 73.6506 37.6081 73.8683 38.2966 74.2506ZM39.3649 74.2506C40.5874 75.2407 41.3685 76.7545 41.3685 78.4505C41.3685 80.1453 40.5878 81.6576 39.3656 82.647H80.6337C79.4105 81.6574 78.6283 80.1448 78.6283 78.4505C78.6283 76.7531 79.4101 75.2401 80.6327 74.2506H39.3649Z" fill="white"/>
    <path fill-rule="evenodd" clip-rule="evenodd" d="M35.9719 74.2506C33.6757 74.2506 31.7719 76.1544 31.7719 78.4505C31.7719 80.743 33.6754 82.647 35.9719 82.647H35.9935C38.3036 82.6346 40.1685 80.7604 40.1685 78.4505C40.1685 76.1306 38.2907 74.2506 35.9719 74.2506ZM35.9951 83.247H35.9719C33.3443 83.247 31.1719 81.0747 31.1719 78.4505C31.1719 75.8231 33.3443 73.6506 35.9719 73.6506C38.6227 73.6506 40.7685 75.7997 40.7685 78.4505C40.7685 81.0912 38.6359 83.2338 35.9951 83.247Z" fill="white"/>
    <path fill-rule="evenodd" clip-rule="evenodd" d="M84.0081 73.6506C81.3673 73.6606 79.228 75.8031 79.228 78.4505C79.228 81.0979 81.3772 83.247 84.028 83.247C86.6556 83.247 88.828 81.0746 88.828 78.4505C88.828 75.8231 86.6556 73.6506 84.028 73.6506C84.0213 73.6506 84.0148 73.6506 84.0081 73.6506Z" fill="white"/>
    <path fill-rule="evenodd" clip-rule="evenodd" d="M84.0081 73.6506C81.3673 73.6606 79.228 75.8031 79.228 78.4505C79.228 81.0979 81.3772 83.247 84.028 83.247C86.6556 83.247 88.828 81.0746 88.828 78.4505C88.828 75.8231 86.6556 73.6506 84.028 73.6506H84.0081ZM84.0093 74.2506C81.6992 74.2599 79.828 76.1342 79.828 78.4505C79.828 80.7662 81.7083 82.647 84.028 82.647C86.3245 82.647 88.228 80.7429 88.228 78.4505C88.228 76.1544 86.3242 74.2506 84.028 74.2506H84.0093Z" fill="white"/>
    <path fill-rule="evenodd" clip-rule="evenodd" d="M37.7943 83.8466V87.701C37.7943 87.9244 37.9807 88.1108 38.2041 88.1108H46.379C46.6024 88.1108 46.7888 87.9244 46.7888 87.701V83.8466H37.7943ZM37.1943 87.701C37.1943 88.2558 37.6494 88.7108 38.2041 88.7108H46.379C46.9338 88.7108 47.3888 88.2558 47.3888 87.701V83.2466H37.1943V87.701Z" fill="white"/>
    <path fill-rule="evenodd" clip-rule="evenodd" d="M70.0066 83.2466V87.701C70.0066 88.2558 70.4616 88.7108 71.0164 88.7108H79.1913C79.746 88.7108 80.2011 88.2558 80.2011 87.701V83.2466H70.0066Z" fill="white"/>
    <path fill-rule="evenodd" clip-rule="evenodd" d="M70.6066 83.8466V87.701C70.6066 87.9244 70.793 88.1108 71.0164 88.1108H79.1913C79.4147 88.1108 79.6011 87.9244 79.6011 87.701V83.8466H70.6066ZM70.0066 87.701C70.0066 88.2558 70.4616 88.7108 71.0164 88.7108H79.1913C79.746 88.7108 80.2011 88.2558 80.2011 87.701V83.2466H70.0066V87.701Z" fill="white"/>
    <path d="M84.0281 72.4786H78.9618V62.0081C78.9618 61.3608 78.4371 60.8362 77.7899 60.8362H66.147C65.4997 60.8362 64.9751 61.3608 64.9751 62.0081V72.4786H35.9719C32.6789 72.4786 30 75.1575 30 78.4503C30 81.7413 32.6789 84.4186 35.9719 84.4186H36.0224V87.7012C36.0224 88.9041 37.0011 89.8829 38.2041 89.8829H46.3789C47.582 89.8829 48.5606 88.9041 48.5606 87.7012V84.4186H68.8349V87.7012C68.8349 88.9041 69.8136 89.8829 71.0166 89.8829H79.1914C80.3945 89.8829 81.3731 88.9041 81.3731 87.7012V84.4186H84.0279C87.3209 84.4186 89.9998 81.7413 89.9998 78.4503C90 75.1575 87.3211 72.4786 84.0281 72.4786ZM79.2882 82.075H40.7091C41.4804 81.0693 41.9404 79.8128 41.9404 78.4504C41.9404 77.0866 41.48 75.8289 40.7081 74.8225H79.2893C78.5169 75.829 78.0564 77.0867 78.0564 78.4504C78.0563 79.8128 78.5164 81.0693 79.2882 82.075ZM67.3188 63.1799H70.7981V65.26C70.7981 65.9072 71.3228 66.4319 71.97 66.4319C72.6172 66.4319 73.1419 65.9072 73.1419 65.26V63.1799H76.6179V72.4786H67.3187V63.1799H67.3188ZM32.3438 78.4503C32.3438 76.4838 34.0052 74.8224 35.9719 74.8224C37.9706 74.8224 39.5966 76.4499 39.5966 78.4503C39.5966 80.4489 37.9706 82.0749 35.9719 82.0749C34.0052 82.075 32.3438 80.415 32.3438 78.4503ZM46.217 87.5391H38.3661V84.4188H46.217V87.5391ZM79.0296 87.5391H71.1788V84.4188H79.0296V87.5391ZM84.0281 82.075C82.0276 82.075 80.4 80.449 80.4 78.4504C80.4 76.4499 82.0276 74.8225 84.0281 74.8225C85.9948 74.8225 87.6563 76.4839 87.6563 78.4504C87.6563 80.415 85.9948 82.075 84.0281 82.075Z" fill="#F37110"/>
    <path fill-rule="evenodd" clip-rule="evenodd" d="M78.3618 73.0786V62.0081C78.3618 61.6922 78.1057 61.4362 77.7899 61.4362H66.147C65.8311 61.4362 65.5751 61.6922 65.5751 62.0081V73.0786H35.9719C33.0103 73.0786 30.6 75.4889 30.6 78.4503C30.6 81.4096 33.0099 83.8186 35.9719 83.8186H36.6224V87.7012C36.6224 88.5727 37.3325 89.2829 38.2041 89.2829H46.3789C47.2506 89.2829 47.9606 88.5728 47.9606 87.7012V83.8186H69.4349V87.7012C69.4349 88.5727 70.145 89.2829 71.0166 89.2829H79.1914C80.0631 89.2829 80.7731 88.5728 80.7731 87.7012V83.8186H84.0279C86.9898 83.8186 89.3998 81.4096 89.3998 78.4502C89.4 75.4889 86.9897 73.0786 84.0281 73.0786H78.3618ZM80.505 82.675H39.4927L40.233 81.7099C40.9273 80.8046 41.3404 79.6754 41.3404 78.4504C41.3404 77.2239 40.9269 76.0936 40.232 75.1877L39.4918 74.2225H80.506L79.7653 75.1878C79.07 76.0938 78.6564 77.2241 78.6564 78.4505C78.6563 79.6754 79.0695 80.8045 79.7642 81.7097L80.505 82.675ZM71.3981 62.5799V65.26C71.3981 65.5759 71.6541 65.8319 71.97 65.8319C72.2859 65.8319 72.5419 65.5759 72.5419 65.26V62.5799H77.2179V73.0786H66.7187V62.5799H71.3981ZM46.817 88.1391H37.7661V83.8188H46.817V88.1391ZM79.6296 88.1391H70.5788V83.8188H79.6296V88.1391ZM79.2882 82.075C79.1415 81.8837 79.006 81.6834 78.8827 81.475C78.3581 80.5876 78.0563 79.5537 78.0564 78.4504C78.0564 77.3458 78.3585 76.3108 78.8838 75.4225C79.007 75.2141 79.1425 75.0138 79.2893 74.8225H40.7081C40.8548 75.0138 40.9903 75.2141 41.1134 75.4225C41.6384 76.3108 41.9404 77.3458 41.9404 78.4504C41.9404 79.5537 41.6387 80.5876 41.1143 81.475C40.9912 81.6834 40.8558 81.8837 40.7091 82.075H79.2882ZM31.7437 78.4503C31.7437 76.1523 33.6739 74.2224 35.9719 74.2224C38.3025 74.2224 40.1966 76.119 40.1966 78.4503C40.1966 80.7803 38.302 82.6749 35.9719 82.6749L31.7437 78.4503ZM31.7437 78.4503C31.7437 80.7469 33.6744 82.675 35.9719 82.6749L31.7437 78.4503ZM84.0281 82.675C81.6968 82.675 79.8 80.781 79.8 78.4504C79.8 76.1185 81.6963 74.2225 84.0281 74.2225C86.3261 74.2225 88.2563 76.1525 88.2563 78.4504C88.2563 80.747 86.3256 82.675 84.0281 82.675ZM84.0281 72.4786C87.3211 72.4786 90 75.1575 89.9998 78.4503C89.9998 81.7413 87.3209 84.4186 84.0279 84.4186H81.3731V87.7012C81.3731 88.9041 80.3945 89.8829 79.1914 89.8829H71.0166C69.8136 89.8829 68.8349 88.9041 68.8349 87.7012V84.4186H48.5606V87.7012C48.5606 88.9041 47.582 89.8829 46.3789 89.8829H38.2041C37.0011 89.8829 36.0224 88.9041 36.0224 87.7012V84.4186H35.9719C32.6789 84.4186 30 81.7413 30 78.4503C30 75.1575 32.6789 72.4786 35.9719 72.4786H64.9751V62.0081C64.9751 61.3608 65.4997 60.8362 66.147 60.8362H77.7899C78.4371 60.8362 78.9618 61.3608 78.9618 62.0081V72.4786H84.0281ZM67.3188 63.1799L67.3187 72.4786H76.6179V63.1799H73.1419V65.26C73.1419 65.9072 72.6172 66.4319 71.97 66.4319C71.3228 66.4319 70.7981 65.9072 70.7981 65.26V63.1799H67.3188ZM35.9719 74.8224C34.0052 74.8224 32.3438 76.4838 32.3438 78.4503C32.3438 80.415 34.0052 82.075 35.9719 82.0749C37.9706 82.0749 39.5966 80.4489 39.5966 78.4503C39.5966 76.4499 37.9706 74.8224 35.9719 74.8224ZM46.217 87.5391V84.4188H38.3661V87.5391H46.217ZM79.0296 87.5391V84.4188H71.1788V87.5391H79.0296ZM80.4 78.4504C80.4 80.449 82.0276 82.075 84.0281 82.075C85.9948 82.075 87.6563 80.415 87.6563 78.4504C87.6563 76.4839 85.9948 74.8225 84.0281 74.8225C82.0276 74.8225 80.4 76.4499 80.4 78.4504Z" fill="white"/>
    <path d="M88.8281 30.1172H65.2601C64.6129 30.1172 64.0882 30.6418 64.0882 31.2891C64.0882 31.9363 64.6129 32.4609 65.2601 32.4609H87.6562V35.9766H32.3438V32.4609H54.7366C55.3839 32.4609 55.9085 31.9363 55.9085 31.2891C55.9085 30.6418 55.3839 30.1172 54.7366 30.1172H31.1719C30.5246 30.1172 30 30.6418 30 31.2891V37.1484C30 37.7957 30.5246 38.3203 31.1719 38.3203H41.2343V39.6962C41.2343 41.7472 42.9029 43.4159 44.9541 43.4159H46.8581V47.6523H41.7418C41.4555 47.6523 41.1791 47.7572 40.9648 47.947L36.4239 51.9696C36.1727 52.192 36.0291 52.5114 36.0291 52.8468V61.3968C36.0291 62.044 36.5537 62.5686 37.2009 62.5686H41.035V67.3226C41.035 67.9698 41.5596 68.4945 42.2068 68.4945H53.8498C54.497 68.4945 55.0216 67.9698 55.0216 67.3226V62.5686H58.8591C59.5063 62.5686 60.0309 62.044 60.0309 61.3968V52.8468C60.0309 52.5114 59.8871 52.192 59.6361 51.9696L55.0952 47.947C54.8809 47.7572 54.6045 47.6523 54.3182 47.6523H49.2019V43.4159H51.1061C53.1571 43.4159 54.8257 41.7472 54.8257 39.6962V38.3203H88.8281C89.4754 38.3203 90 37.7957 90 37.1484V31.2891C90 30.6418 89.4754 30.1172 88.8281 30.1172ZM52.6779 66.1507H43.3787V56.852H46.858V58.9321C46.858 59.5793 47.3827 60.1039 48.0299 60.1039C48.6771 60.1039 49.2018 59.5793 49.2018 58.9321V56.852H52.6778V66.1507H52.6779ZM57.6871 53.3742V60.2249H55.0215V55.6801C55.0215 55.0329 54.4969 54.5082 53.8496 54.5082H42.2067C41.5595 54.5082 41.0348 55.0329 41.0348 55.6801V60.2249H38.3728V53.3742L42.1862 49.9961H53.8737L57.6871 53.3742ZM52.4818 39.6962C52.4818 40.4549 51.8646 41.0721 51.1059 41.0721H44.9539C44.1952 41.0721 43.5779 40.4549 43.5779 39.6962V38.3203H52.4817V39.6962H52.4818Z" fill="#F37110"/>
    <path fill-rule="evenodd" clip-rule="evenodd" d="M88.2562 31.8609V36.5766H31.7437V31.8609H54.7366C55.0525 31.8609 55.3085 31.6049 55.3085 31.2891C55.3085 30.9732 55.0525 30.7172 54.7366 30.7172H31.1719C30.856 30.7172 30.6 30.9732 30.6 31.2891V37.1484C30.6 37.4643 30.856 37.7203 31.1719 37.7203H41.8343V39.6962C41.8343 41.4158 43.2343 42.8159 44.9541 42.8159H47.4581V48.2523H41.7418C41.6022 48.2523 41.4673 48.3035 41.3626 48.3962L36.8217 52.4187C36.6992 52.5272 36.6291 52.6831 36.6291 52.8468V61.3968C36.6291 61.7126 36.8851 61.9686 37.2009 61.9686H41.635V67.3226C41.635 67.6384 41.891 67.8945 42.2068 67.8945H53.8498C54.1656 67.8945 54.4216 67.6384 54.4216 67.3226V61.9686H58.8591C59.1749 61.9686 59.4309 61.7126 59.4309 61.3968V52.8468C59.4309 52.6832 59.3608 52.5273 59.2383 52.4187L88.2562 31.8609ZM59.2383 52.4187L54.6974 48.3962C54.5927 48.3035 54.4578 48.2523 54.3182 48.2523H48.6019V42.8159H51.1061C52.8257 42.8159 54.2257 41.4159 54.2257 39.6962V37.7203H88.8281C89.144 37.7203 89.4 37.4643 89.4 37.1484V31.2891C89.4 30.9732 89.144 30.7172 88.8281 30.7172H65.2601C64.9442 30.7172 64.6882 30.9732 64.6882 31.2891C64.6882 31.6049 64.9442 31.8609 65.2601 31.8609H88.2562L59.2383 52.4187ZM59.6361 51.9696C59.8871 52.192 60.0309 52.5114 60.0309 52.8468V61.3968C60.0309 62.044 59.5063 62.5686 58.8591 62.5686H55.0216V67.3226C55.0216 67.9698 54.497 68.4945 53.8498 68.4945H42.2068C41.5596 68.4945 41.035 67.9698 41.035 67.3226V62.5686H37.2009C36.5537 62.5686 36.0291 62.044 36.0291 61.3968V52.8468C36.0291 52.5114 36.1727 52.192 36.4239 51.9696L40.9648 47.947C41.1791 47.7572 41.4555 47.6523 41.7418 47.6523H46.8581V43.4159H44.9541C42.9029 43.4159 41.2343 41.7472 41.2343 39.6962V38.3203H31.1719C30.5246 38.3203 30 37.7957 30 37.1484V31.2891C30 30.6418 30.5246 30.1172 31.1719 30.1172H54.7366C55.3839 30.1172 55.9085 30.6418 55.9085 31.2891C55.9085 31.9363 55.3839 32.4609 54.7366 32.4609H32.3438V35.9766H87.6562V32.4609H65.2601C64.6129 32.4609 64.0882 31.9363 64.0882 31.2891C64.0882 30.6418 64.6129 30.1172 65.2601 30.1172H88.8281C89.4754 30.1172 90 30.6418 90 31.2891V37.1484C90 37.7957 89.4754 38.3203 88.8281 38.3203H54.8257V39.6962C54.8257 41.7472 53.1571 43.4159 51.1061 43.4159H49.2019V47.6523H54.3182C54.6045 47.6523 54.8809 47.7572 55.0952 47.947L59.6361 51.9696ZM42.7787 66.7507V56.252H47.458V58.9321C47.458 59.2479 47.714 59.5039 48.0299 59.5039C48.3457 59.5039 48.6018 59.2479 48.6018 58.9321V56.252H53.2778V66.1507H52.6779V66.7507H42.7787ZM52.6779 66.1507L52.6778 56.852H49.2018V58.9321C49.2018 59.5793 48.6771 60.1039 48.0299 60.1039C47.3827 60.1039 46.858 59.5793 46.858 58.9321V56.852H43.3787V66.1507H52.6779ZM58.2871 53.1042V60.8249H54.4215V55.6801C54.4215 55.3643 54.1655 55.1082 53.8496 55.1082H42.2067C41.8909 55.1082 41.6348 55.3643 41.6348 55.6801V60.8249H37.7728V53.1042L41.9587 49.3961H54.1012L58.2871 53.1042ZM53.0818 39.0962V39.6962C53.0818 40.7863 52.196 41.6721 51.1059 41.6721H44.9539C43.8638 41.6721 42.9779 40.7863 42.9779 39.6962V37.7203H53.0817L53.0818 39.0962ZM52.344 40.2962C52.1207 40.7551 51.6496 41.0721 51.1059 41.0721H44.9539C44.1952 41.0721 43.5779 40.4549 43.5779 39.6962V38.3203H52.4817V39.6962C52.4817 39.7023 52.4818 39.7083 52.4817 39.7144C52.479 39.9226 52.4298 40.1199 52.344 40.2962ZM57.6871 53.3742L53.8737 49.9961H42.1862L38.3728 53.3742V60.2249H41.0348V55.6801C41.0348 55.0329 41.5595 54.5082 42.2067 54.5082H53.8496C54.4969 54.5082 55.0215 55.0329 55.0215 55.6801V60.2249H57.6871V53.3742Z" fill="white"/>
    <path d="M72.4782 77.2783H47.5217C46.8745 77.2783 46.3499 77.803 46.3499 78.4502C46.3499 79.0974 46.8745 79.6221 47.5217 79.6221H72.4783C73.1255 79.6221 73.6502 79.0974 73.6502 78.4502C73.6502 77.803 73.1254 77.2783 72.4782 77.2783Z" fill="#F37110"/>
    <path fill-rule="evenodd" clip-rule="evenodd" d="M72.4782 77.8783H47.5217C47.2059 77.8783 46.9499 78.1343 46.9499 78.4502C46.9499 78.7661 47.2059 79.0221 47.5217 79.0221H72.4783C72.7942 79.0221 73.0502 78.7661 73.0502 78.4502C73.0502 78.1344 72.7941 77.8783 72.4782 77.8783ZM47.5217 77.2783H72.4782C73.1254 77.2783 73.6502 77.803 73.6502 78.4502C73.6502 79.0974 73.1255 79.6221 72.4783 79.6221H47.5217C46.8745 79.6221 46.3499 79.0974 46.3499 78.4502C46.3499 77.803 46.8745 77.2783 47.5217 77.2783Z" fill="white"/>
    <path d="M59.9984 32.4609H60.0051C60.6523 32.4609 61.1737 31.9363 61.1737 31.2891C61.1737 30.6418 60.6458 30.1172 59.9985 30.1172C59.3513 30.1172 58.8267 30.6418 58.8267 31.2891C58.8267 31.9363 59.3512 32.4609 59.9984 32.4609Z" fill="#F37110"/>
    <path fill-rule="evenodd" clip-rule="evenodd" d="M59.9984 31.8609H60.0051C60.3188 31.8609 60.5737 31.6071 60.5737 31.2891C60.5737 30.9754 60.3166 30.7172 59.9985 30.7172C59.6827 30.7172 59.4267 30.9732 59.4267 31.2891C59.4267 31.605 59.6826 31.8609 59.9984 31.8609ZM60.0051 32.4609H59.9984C59.3512 32.4609 58.8267 31.9363 58.8267 31.2891C58.8267 30.6418 59.3513 30.1172 59.9985 30.1172C60.6458 30.1172 61.1737 30.6418 61.1737 31.2891C61.1737 31.9363 60.6523 32.4609 60.0051 32.4609Z" fill="white"/>
    <path d="M89.9999 77.1428C89.9999 84.2436 84.2436 89.9999 77.1428 89.9999C70.042 89.9999 64.2856 84.2436 64.2856 77.1428C64.2856 70.042 70.042 64.2856 77.1428 64.2856C84.2436 64.2856 89.9999 70.042 89.9999 77.1428Z" fill="white"/>
    <path fill-rule="evenodd" clip-rule="evenodd" d="M77.1428 87.9999C83.139 87.9999 87.9999 83.139 87.9999 77.1428C87.9999 71.1466 83.139 66.2856 77.1428 66.2856C71.1466 66.2856 66.2856 71.1466 66.2856 77.1428C66.2856 83.139 71.1466 87.9999 77.1428 87.9999ZM77.1428 89.9999C84.2436 89.9999 89.9999 84.2436 89.9999 77.1428C89.9999 70.042 84.2436 64.2856 77.1428 64.2856C70.042 64.2856 64.2856 70.042 64.2856 77.1428C64.2856 84.2436 70.042 89.9999 77.1428 89.9999Z" fill="#F37110"/>
    <path fill-rule="evenodd" clip-rule="evenodd" d="M72 81.2353L73.3193 82.5546L77.2773 78.5966L81.2353 82.5547L82.5547 81.2353L78.5966 77.2773L82.5546 73.3193L81.2353 72L77.2773 75.958L73.3194 72.0001L72 73.3194L75.958 77.2773L72 81.2353Z" fill="#F37110"/>
</svg>