<?xml version="1.0" encoding="UTF-8"?>
<svg version="1.1" xmlns="http://www.w3.org/2000/svg" width="120" height="120">
<path d="M0 0 C0.85207031 0.32742187 1.70414062 0.65484375 2.58203125 0.9921875 C16.84636987 7.14719345 26.40698003 19.98075232 32.703125 33.65625 C37.86040532 46.95333421 38.26103807 63.7886246 33.25390625 77.1875 C25.96278346 93.54142029 14.71451157 106.0228415 -2 113 C-2.76054688 113.32097656 -3.52109375 113.64195313 -4.3046875 113.97265625 C-19.22157904 119.0958698 -36.79797095 117.00742874 -50.875 110.71484375 C-64.67313221 103.83494172 -75.09169906 92.1539517 -81 78 C-81.48146484 76.85917969 -81.48146484 76.85917969 -81.97265625 75.6953125 C-86.61337175 62.18327575 -85.60899908 45.01956408 -80 32 C-79.67257813 31.14792969 -79.34515625 30.29585937 -79.0078125 29.41796875 C-72.85280655 15.15363013 -60.01924768 5.59301997 -46.34375 -0.703125 C-31.87200808 -6.31599686 -14.26250164 -6.14447289 0 0 Z " fill="#EFF3F9" transform="translate(84,4)"/>
<path d="M0 0 C0.66 0 1.32 0 2 0 C2.34884724 4.89839668 1.46792622 7.65895937 -1 11.875 C-1.556875 12.84179688 -2.11375 13.80859375 -2.6875 14.8046875 C-3.3371875 15.89136719 -3.3371875 15.89136719 -4 17 C-2.35 16.67 -0.7 16.34 1 16 C1.66 17.32 2.32 18.64 3 20 C1.35 20.66 -0.3 21.32 -2 22 C-2 21.01 -2 20.02 -2 19 C-2.99 19 -3.98 19 -5 19 C-4.60404157 20.48484412 -4.18249294 21.9628831 -3.75 23.4375 C-3.51796875 24.26121094 -3.2859375 25.08492187 -3.046875 25.93359375 C-2.70140625 26.61550781 -2.3559375 27.29742187 -2 28 C0.01782767 28.61910459 0.01782767 28.61910459 2 29 C2.33 29.99 2.66 30.98 3 32 C6.02282643 33.03547047 6.02282643 33.03547047 9.5625 33.6875 C11.35880859 34.06455078 11.35880859 34.06455078 13.19140625 34.44921875 C14.11824219 34.63097656 15.04507813 34.81273437 16 35 C16 35.66 16 36.32 16 37 C9.48208608 37.3540919 4.82478551 37.03901852 -1 34 C-1.33 37.3 -1.66 40.6 -2 44 C-0.494375 44.144375 1.01125 44.28875 2.5625 44.4375 C8.90326371 45.52307822 13.5512246 48.42246846 18.78344727 51.98803711 C22.43493622 54.40747422 22.43493622 54.40747422 26.6875 54.9296875 C29.06282117 53.97474419 31.017548 52.88792285 33.125 51.4375 C36.67422096 49 36.67422096 49 40 49 C38.77974937 52.6607519 37.873509 52.92339441 34.5625 54.6875 C33.75941406 55.12449219 32.95632812 55.56148437 32.12890625 56.01171875 C30 57 30 57 28 57 C28.14183696 58.75032844 28.28863429 60.50025534 28.4375 62.25 C28.51871094 63.22453125 28.59992187 64.1990625 28.68359375 65.203125 C28.95074584 67.56461753 29.35371968 69.71901065 30 72 C29.01 72 28.02 72 27 72 C27 71.01 27 70.02 27 69 C26.34 69 25.68 69 25 69 C25 69.99 25 70.98 25 72 C24.01 72 23.02 72 22 72 C22.309375 71.175 22.61875 70.35 22.9375 69.5 C24.11877583 65.60873845 24.58224168 62.03833047 25 58 C24.30390625 57.74347656 23.6078125 57.48695312 22.890625 57.22265625 C19.67465667 55.86238857 16.77184938 54.18564717 13.75 52.4375 C8.26458142 49.42956854 4.22575657 48.1055213 -2 48 C-1.7834375 48.60328125 -1.566875 49.2065625 -1.34375 49.828125 C-1.0653125 50.62734375 -0.786875 51.4265625 -0.5 52.25 C-0.2215625 53.03890625 0.056875 53.8278125 0.34375 54.640625 C1 57 1 57 1 61 C1.66 61 2.32 61 3 61 C3.33 62.98 3.66 64.96 4 67 C2.68 67 1.36 67 0 67 C0 68.32 0 69.64 0 71 C-0.99 70.67 -1.98 70.34 -3 70 C-8.47127625 58.19741411 -8.19713734 47.00424774 -4 35 C-3.23719649 32.93712581 -3.23719649 32.93712581 -3 31 C-3.639375 30.236875 -4.27875 29.47375 -4.9375 28.6875 C-7.55657317 25.27476829 -7.32918862 23.19715486 -7 19 C-7.99 19 -8.98 19 -10 19 C-9 16 -9 16 -7.6015625 14.625 C-5.61527282 12.60964267 -4.60791656 10.54147217 -3.375 8 C-2.94960938 7.13375 -2.52421875 6.2675 -2.0859375 5.375 C-0.91847577 2.93359488 -0.91847577 2.93359488 0 0 Z " fill="#2795CA" transform="translate(34,23)"/>
<path d="M0 0 C0.66 0 1.32 0 2 0 C2.25394531 0.66386719 2.50789063 1.32773437 2.76953125 2.01171875 C5.3117496 8.803031 5.3117496 8.803031 9 15 C9.99 15.33 10.98 15.66 12 16 C12 16.99 12 17.98 12 19 C11.34 19 10.68 19 10 19 C9.9175 20.051875 9.835 21.10375 9.75 22.1875 C9 26 9 26 6.75 28.3125 C4.69599129 30.81438025 4.69599129 30.81438025 5.37109375 33.42578125 C6.14961382 35.99973994 7.02720657 38.49367632 8 41 C11.33311474 50.99934423 8.54536226 61.47183893 5 71 C4.01 71 3.02 71 2 71 C2 69.35 2 67.7 2 66 C0.02 66.495 0.02 66.495 -2 67 C-1.34055037 62.64763247 0.26381766 59.02794303 2 55 C2.74162079 52.68017399 3.37513172 50.35527276 4 48 C-1.94 48.495 -1.94 48.495 -8 49 C-7.67 48.01 -7.34 47.02 -7 46 C-2.9083139 44.19204568 0.55719328 43.78843778 5 44 C4.01 41.03 3.02 38.06 2 35 C1.20980469 35.2165625 0.41960937 35.433125 -0.39453125 35.65625 C-10.71962613 38.20507342 -20.42268197 38.30446438 -31 38 C-31 37.01 -31 36.02 -31 35 C-30.44650879 34.98018066 -29.89301758 34.96036133 -29.32275391 34.93994141 C-15.04213829 34.45852994 -15.04213829 34.45852994 -1 32 C-0.67 31.01 -0.34 30.02 0 29 C0.96679688 28.80083984 0.96679688 28.80083984 1.953125 28.59765625 C2.96632813 28.30181641 2.96632813 28.30181641 4 28 C5.1375213 25.91965706 5.1375213 25.91965706 5.75 23.4375 C5.99234375 22.61121094 6.2346875 21.78492187 6.484375 20.93359375 C6.65453125 20.29550781 6.8246875 19.65742187 7 19 C6.01 19 5.02 19 4 19 C4 19.66 4 20.32 4 21 C2.68 21 1.36 21 0 21 C0.33 22.98 0.66 24.96 1 27 C0.01 26.67 -0.98 26.34 -2 26 C-2 25.34 -2 24.68 -2 24 C-2.66 24 -3.32 24 -4 24 C-5.31626692 20.38026598 -6 17.90432869 -6 14 C-5.01 14 -4.02 14 -3 14 C-2.34 15.32 -1.68 16.64 -1 18 C-0.54625 17.505 -0.0925 17.01 0.375 16.5 C2 15 2 15 4 15 C4 15.66 4 16.32 4 17 C4.66 17 5.32 17 6 17 C5.566875 16.27554688 5.13375 15.55109375 4.6875 14.8046875 C4.130625 13.83789062 3.57375 12.87109375 3 11.875 C2.443125 10.92367187 1.88625 9.97234375 1.3125 8.9921875 C-0.11630654 5.73484878 -0.25041309 3.5162171 0 0 Z " fill="#3B9ECE" transform="translate(84,23)"/>
<path d="M0 0 C2.1760604 8.16022651 1.38663813 15.38006421 -2 23 C-2.66 23 -3.32 23 -4 23 C-4.33 23.99 -4.66 24.98 -5 26 C-5.66 26 -6.32 26 -7 26 C-6.01 23.03 -5.02 20.06 -4 17 C-6.64 16.67 -9.28 16.34 -12 16 C-11.06253955 12.89916929 -10.12912083 10.21175817 -8.4375 7.4375 C-6.94234283 4.9022335 -6.5553261 2.85596281 -6 0 C-3.50907189 -1.24546405 -2.58919267 -0.7767578 0 0 Z " fill="#B3D7EB" transform="translate(42,24)"/>
<path d="M0 0 C0.66 0 1.32 0 2 0 C2.55353075 17.85649203 2.55353075 17.85649203 -1 26 C-1.99 26 -2.98 26 -4 26 C-4 24.35 -4 22.7 -4 21 C-5.32 21.33 -6.64 21.66 -8 22 C-7.34055037 17.64763247 -5.73618234 14.02794303 -4 10 C-3.25837921 7.68017399 -2.62486828 5.35527276 -2 3 C-1.34 3 -0.68 3 0 3 C0 2.01 0 1.02 0 0 Z " fill="#329ACC" transform="translate(90,68)"/>
<path d="M0 0 C0.66 0 1.32 0 2 0 C2.34884724 4.89839668 1.46792622 7.65895937 -1 11.875 C-1.556875 12.84179688 -2.11375 13.80859375 -2.6875 14.8046875 C-3.3371875 15.89136719 -3.3371875 15.89136719 -4 17 C-2.35 16.67 -0.7 16.34 1 16 C1.66 17.32 2.32 18.64 3 20 C1.35 20.66 -0.3 21.32 -2 22 C-2 21.01 -2 20.02 -2 19 C-2.99 19 -3.98 19 -5 19 C-4.01 22.3 -3.02 25.6 -2 29 C-2.99 29 -3.98 29 -5 29 C-7.4294516 25.3558226 -7.16179575 23.28758728 -7 19 C-7.99 19 -8.98 19 -10 19 C-9 16 -9 16 -7.6015625 14.625 C-5.61527282 12.60964267 -4.60791656 10.54147217 -3.375 8 C-2.94960938 7.13375 -2.52421875 6.2675 -2.0859375 5.375 C-0.91847577 2.93359488 -0.91847577 2.93359488 0 0 Z " fill="#2B96CA" transform="translate(34,23)"/>
<path d="M0 0 C0.33 0 0.66 0 1 0 C1.18175781 0.59167969 1.36351563 1.18335937 1.55078125 1.79296875 C2.96570989 6.24092391 4.47980358 10.03969135 7 14 C7 14.66 7 15.32 7 16 C6.34 16 5.68 16 5 16 C5 15.34 5 14.68 5 14 C2.03 16.475 2.03 16.475 -1 19 C-1.33 17.02 -1.66 15.04 -2 13 C-2.99 12.67 -3.98 12.34 -5 12 C-6 11 -6 11 -6.0625 7.9375 C-6.041875 6.968125 -6.02125 5.99875 -6 5 C-5.195625 4.731875 -4.39125 4.46375 -3.5625 4.1875 C-2.716875 3.795625 -1.87125 3.40375 -1 3 C-0.67 2.01 -0.34 1.02 0 0 Z " fill="#E4EEF6" transform="translate(83,24)"/>
<path d="M0 0 C1.88391785 3.26545761 2.49287967 6.28111761 3 10 C3.66 10 4.32 10 5 10 C5.33 11.98 5.66 13.96 6 16 C4.68 16 3.36 16 2 16 C2 17.32 2 18.64 2 20 C1.01 19.67 0.02 19.34 -1 19 C-1.73046875 17.15234375 -1.73046875 17.15234375 -2.1875 14.9375 C-2.34605469 14.20402344 -2.50460938 13.47054687 -2.66796875 12.71484375 C-2.77753906 12.14894531 -2.88710938 11.58304688 -3 11 C-2.34 11 -1.68 11 -1 11 C-1.33 8.03 -1.66 5.06 -2 2 C-1.34 2 -0.68 2 0 2 C0 1.34 0 0.68 0 0 Z " fill="#8FC6E2" transform="translate(32,74)"/>
<path d="M0 0 C1.65 0 3.3 0 5 0 C5.33 0.99 5.66 1.98 6 3 C9.02282643 4.03547047 9.02282643 4.03547047 12.5625 4.6875 C13.76003906 4.93886719 14.95757812 5.19023438 16.19140625 5.44921875 C17.11824219 5.63097656 18.04507813 5.81273437 19 6 C19 6.66 19 7.32 19 8 C12.48208608 8.3540919 7.82478551 8.03901852 2 5 C1.67 8.3 1.34 11.6 1 15 C1.99 15.33 2.98 15.66 4 16 C2.68 16 1.36 16 0 16 C-0.33 14.68 -0.66 13.36 -1 12 C-1.66 12.99 -2.32 13.98 -3 15 C-2.45022293 10.41852438 -1.51774506 6.35086918 0 2 C0 1.34 0 0.68 0 0 Z " fill="#3D9FCF" transform="translate(31,52)"/>
<path d="M0 0 C0.33 0 0.66 0 1 0 C1 1.65 1 3.3 1 5 C1.66 5 2.32 5 3 5 C2.88541307 6.43836751 2.75790884 7.87570966 2.625 9.3125 C2.55539063 10.11300781 2.48578125 10.91351563 2.4140625 11.73828125 C2 14 2 14 0 17 C-2.625 17.6875 -2.625 17.6875 -5 18 C-4.52936682 14.89382104 -3.76645624 12.46479554 -2.5 9.5625 C-1.12049408 6.28617344 -0.4278842 3.5086504 0 0 Z " fill="#85C1E0" transform="translate(87,72)"/>
<path d="M0 0 C2.49118953 3.7367843 2.2065226 5.74451819 2.125 10.1875 C2.10695313 11.45980469 2.08890625 12.73210937 2.0703125 14.04296875 C2.04710938 15.01878906 2.02390625 15.99460937 2 17 C1.67 17 1.34 17 1 17 C1 12.71 1 8.42 1 4 C0.34 4 -0.32 4 -1 4 C-1.33 4.99 -1.66 5.98 -2 7 C-3.546875 6.9690625 -3.546875 6.9690625 -5.125 6.9375 C-8.55152969 6.99276661 -11.64572414 7.34550715 -15 8 C-14.67 7.01 -14.34 6.02 -14 5 C-9.9083139 3.19204568 -6.44280672 2.78843778 -2 3 C-1.67 2.34 -1.34 1.68 -1 1 C-0.67 0.67 -0.34 0.34 0 0 Z " fill="#6BB5DA" transform="translate(91,64)"/>
<path d="M0 0 C1 3 1 3 -0.4375 6.1875 C-1.2109375 7.5796875 -1.2109375 7.5796875 -2 9 C-1.01 8.67 -0.02 8.34 1 8 C1 8.66 1 9.32 1 10 C-0.98 10.33 -2.96 10.66 -5 11 C-7.40814077 7.48812804 -8.36629408 5.27343092 -8 1 C-7.01 1 -6.02 1 -5 1 C-5 1.99 -5 2.98 -5 4 C-3.35 3.34 -1.7 2.68 0 2 C0 1.34 0 0.68 0 0 Z " fill="#D4E7F2" transform="translate(37,41)"/>
<path d="M0 0 C0.99 0 1.98 0 3 0 C2.25 6.625 2.25 6.625 0 10 C-1.65 9.67 -3.3 9.34 -5 9 C-4.34 8.67 -3.68 8.34 -3 8 C-3.33 6.02 -3.66 4.04 -4 2 C-2.68 2 -1.36 2 0 2 C0 1.34 0 0.68 0 0 Z " fill="#CFE4F1" transform="translate(88,42)"/>
<path d="M0 0 C0.99 0 1.98 0 3 0 C3.28875 0.598125 3.5775 1.19625 3.875 1.8125 C5.04742026 4.19327792 5.04742026 4.19327792 7 7 C7.125 10.1875 7.125 10.1875 7 13 C6.01 12.67 5.02 12.34 4 12 C4 11.34 4 10.68 4 10 C3.34 10 2.68 10 2 10 C0.68373308 6.38026598 0 3.90432869 0 0 Z " fill="#63B1D8" transform="translate(78,37)"/>
<path d="M0 0 C0.33 0 0.66 0 1 0 C3.11161731 11.52164009 3.11161731 11.52164009 4 17 C3.01 17 2.02 17 1 17 C0.09586327 13.16275828 -0.10576898 9.62497726 -0.0625 5.6875 C-0.05347656 4.61886719 -0.04445313 3.55023438 -0.03515625 2.44921875 C-0.02355469 1.64097656 -0.01195313 0.83273438 0 0 Z " fill="#4AA5D2" transform="translate(27,68)"/>
<path d="M0 0 C0.66 0 1.32 0 2 0 C2 0.99 2 1.98 2 3 C2.99 3 3.98 3 5 3 C5.33 2.01 5.66 1.02 6 0 C6.33 1.98 6.66 3.96 7 6 C4.525 5.01 4.525 5.01 2 4 C2 4.66 2 5.32 2 6 C0.68 5.67 -0.64 5.34 -2 5 C-1.125 1.125 -1.125 1.125 0 0 Z " fill="#1B8FC7" transform="translate(86,38)"/>
<path d="M0 0 C0.66 0 1.32 0 2 0 C2 3.96 2 7.92 2 12 C1.67 10.68 1.34 9.36 1 8 C0.01 8 -0.98 8 -2 8 C-2 6.35 -2 4.7 -2 3 C-1.34 3 -0.68 3 0 3 C0 2.01 0 1.02 0 0 Z " fill="#178DC6" transform="translate(90,68)"/>
<path d="M0 0 C1.19882812 0.15275391 1.19882812 0.15275391 2.421875 0.30859375 C3.02515625 0.39238281 3.6284375 0.47617187 4.25 0.5625 C4.25 1.2225 4.25 1.8825 4.25 2.5625 C2.64620659 2.61666188 1.04188594 2.65536638 -0.5625 2.6875 C-1.45582031 2.71070313 -2.34914063 2.73390625 -3.26953125 2.7578125 C-5.75 2.5625 -5.75 2.5625 -8.75 0.5625 C-5.62819599 -0.40411363 -3.22916205 -0.42738909 0 0 Z " fill="#4FA8D3" transform="translate(45.75,57.4375)"/>
<path d="M0 0 C-0.33 0.66 -0.66 1.32 -1 2 C-3.72265625 2.6328125 -3.72265625 2.6328125 -7.0625 3.125 C-8.16722656 3.29257813 -9.27195312 3.46015625 -10.41015625 3.6328125 C-11.69212891 3.81457031 -11.69212891 3.81457031 -13 4 C-12.67 3.01 -12.34 2.02 -12 1 C-8.32433144 -0.61729417 -3.92760325 -0.06546005 0 0 Z " fill="#2F99CC" transform="translate(89,68)"/>
<path d="M0 0 C-1 3 -1 3 -4.0625 4.6875 C-5.031875 5.120625 -6.00125 5.55375 -7 6 C-7.66 5.34 -8.32 4.68 -9 4 C-3.375 0 -3.375 0 0 0 Z " fill="#3D9FCF" transform="translate(74,72)"/>
<path d="M0 0 C-3.31371 2.20914 -4.3446021 2.22481553 -8.1875 2.125 C-9.08855469 2.10695313 -9.98960938 2.08890625 -10.91796875 2.0703125 C-11.60503906 2.04710938 -12.29210937 2.02390625 -13 2 C-13 1.34 -13 0.68 -13 0 C-8.34462607 -0.83796731 -4.62921525 -1.0161692 0 0 Z " fill="#4BA6D2" transform="translate(43,69)"/>
<path d="M0 0 C0.99 0 1.98 0 3 0 C3 1.98 3 3.96 3 6 C2.01 6 1.02 6 0 6 C0 4.02 0 2.04 0 0 Z " fill="#49A5D2" transform="translate(77,29)"/>
<path d="M0 0 C0.99 0 1.98 0 3 0 C3 1.98 3 3.96 3 6 C2.01 6 1.02 6 0 6 C0 4.02 0 2.04 0 0 Z " fill="#45A3D1" transform="translate(40,29)"/>
<path d="M0 0 C0.99 0 1.98 0 3 0 C3.33 1.98 3.66 3.96 4 6 C3.01 5.67 2.02 5.34 1 5 C0.67 3.35 0.34 1.7 0 0 Z " fill="#2F98CB" transform="translate(30,88)"/>
</svg>
