<svg width="120" height="120" viewBox="0 0 120 120" fill="none" xmlns="http://www.w3.org/2000/svg">
    <circle cx="60" cy="60" r="60" fill="#F2F5FA"/>
    <path d="M88.1856 72.0966C87.5807 71.4917 85.7259 69.7579 82.742 69.274C79.4356 68.7498 76.9356 70.0804 76.2501 70.4837C73.9114 71.9756 70.2823 77.4998 65.5646 77.8627C62.0162 78.1449 59.1936 77.4998 57.6614 77.1772C55.8872 76.774 51.0888 73.7901 46.734 70.4837C44.2378 68.5885 43.3872 67.6208 41.9759 66.9756C41.9759 66.9756 39.0323 65.6046 37.0969 65.2014" stroke="#1D86BC" stroke-width="2" stroke-miterlimit="10" stroke-linecap="round" stroke-linejoin="round"/>
    <path d="M70.0002 76.0481C71.1695 76.411 75.6453 77.9433 76.6131 82.0562" stroke="#1D86BC" stroke-width="2" stroke-miterlimit="10" stroke-linecap="round" stroke-linejoin="round"/>
    <path d="M80.2015 50.0805C78.629 49.4757 76.3709 48.6692 73.629 47.9031C68.4677 46.4112 63.0241 45.766 57.6612 46.4515C52.137 47.1773 47.1773 49.516 42.6612 52.7015C41.4112 53.5886 40.2015 54.516 38.9919 55.4434C38.1854 56.0886 36.6532 57.3386 34.2741 58.9515C31.5725 60.8063 29.2338 62.1773 27.7015 63.0241C29.2741 62.7418 31.3709 62.3386 33.8306 61.6934C39.0322 60.3225 43.629 57.4999 48.5886 55.4434C53.508 53.387 58.8306 52.7015 64.1128 53.3466C67.379 53.7499 70.5241 54.6773 73.629 55.8063C76.5322 56.8547 79.3548 58.387 82.4596 58.8305C83.1451 58.9112 86.8951 59.395 90.0806 57.8628C90.1209 57.8628 90.1612 57.8225 90.1612 57.8225C92.4596 56.6934 94.0725 55.3628 95.2015 54.1531" stroke="#1D86BC" stroke-width="2" stroke-miterlimit="10" stroke-linecap="round" stroke-linejoin="round"/>
    <path d="M74.4354 72.4287C74.4354 72.4287 79.2741 71.9852 82.0161 77.1465" stroke="#1D86BC" stroke-width="2" stroke-miterlimit="10" stroke-linecap="round" stroke-linejoin="round"/>
    <path d="M62.3789 78.0645C62.3789 78.0645 65.0402 79.9999 63.9918 82.9032" stroke="#1D86BC" stroke-width="2" stroke-miterlimit="10" stroke-linecap="round" stroke-linejoin="round"/>
    <path d="M76.1691 70.6049C76.8546 70.121 77.8626 69.4355 79.1126 68.6694C79.1126 68.6694 79.1126 68.6694 79.1529 68.6291C81.1691 66.6532 82.8626 64.3145 84.0723 61.7339L84.5562 60.7258" stroke="#1D86BC" stroke-width="2" stroke-miterlimit="10" stroke-linecap="round" stroke-linejoin="round"/>
    <path d="M71.1289 57.4191C71.7337 58.9111 71.9353 60.524 71.6934 62.2175C70.9676 67.2982 66.2499 70.8466 61.1692 70.1207C56.0886 69.3949 52.5402 64.6772 53.266 59.5965C53.4273 58.5885 53.7095 57.6207 54.1531 56.7336" stroke="#1D86BC" stroke-width="2" stroke-miterlimit="10" stroke-linecap="round" stroke-linejoin="round"/>
    <path d="M76.0886 56.7742C76.0886 56.7742 83.8305 57.379 85.6854 52.7822" stroke="#1D86BC" stroke-width="2" stroke-miterlimit="10" stroke-linecap="round" stroke-linejoin="round"/>
    <path d="M68.1855 54.1127C68.1855 54.1127 73.5484 54.0724 75.242 51.1692" stroke="#1D86BC" stroke-width="2" stroke-miterlimit="10" stroke-linecap="round" stroke-linejoin="round"/>
    <path d="M66.1284 64.0066C67.3553 62.0686 66.7789 59.5029 64.8409 58.2759C62.9029 57.049 60.3372 57.6255 59.1103 59.5635C57.8834 61.5015 58.4598 64.0671 60.3978 65.2941C62.3358 66.521 64.9015 65.9446 66.1284 64.0066Z" stroke="#1D86BC" stroke-width="2" stroke-miterlimit="10" stroke-linecap="round" stroke-linejoin="round"/>
    <path d="M62.8224 60.4836C63.5482 60.6046 64.0724 61.2498 63.9515 61.9756C63.8305 62.7014 63.1853 63.2256 62.4595 63.1046C61.7337 62.9836 61.2095 62.3385 61.3305 61.6127" stroke="#1D86BC" stroke-width="2" stroke-miterlimit="10" stroke-linecap="round" stroke-linejoin="round"/>
</svg>