<svg width="120" height="120" viewBox="0 0 120 120" fill="none" xmlns="http://www.w3.org/2000/svg">
    <circle cx="60" cy="60" r="60" fill="#F2F5FA"/>
    <path d="M88.1856 72.0968C87.5808 71.492 85.726 69.7581 82.7421 69.2742C79.4356 68.75 76.9356 70.0807 76.2501 70.4839C73.9114 71.9758 70.2824 73.7904 65.5647 74.1533C62.0163 74.4355 59.1937 73.7904 57.6614 73.4678C55.8872 73.0646 54.5969 72.5807 47.7018 69.5162C45.363 68.4678 43.3872 67.621 41.976 66.9759C41.976 66.9759 39.0324 65.6049 37.0969 65.2017" stroke="#1D86BC" stroke-width="2" stroke-miterlimit="10" stroke-linecap="round" stroke-linejoin="round"/>
    <path d="M67.7019 73.8711C68.8713 74.234 73.3471 75.7663 74.3148 79.8792" stroke="#1D86BC" stroke-width="2" stroke-miterlimit="10" stroke-linecap="round" stroke-linejoin="round"/>
    <path d="M80.2015 50.0805C78.629 49.4757 76.3709 48.6692 73.629 47.9031C68.4677 46.4112 63.0241 45.766 57.6612 46.4515C52.137 47.1773 47.1773 49.516 42.6612 52.7015C41.4112 53.5886 40.2015 54.516 38.9919 55.4434C38.1854 56.0886 36.6532 57.3386 34.2741 58.9515C31.5725 60.8063 29.2338 62.1773 27.7015 63.0241C29.2741 62.7418 31.3709 62.3386 33.8306 61.6934C39.0322 60.3225 43.629 57.4999 48.5886 55.4434C53.508 53.387 58.8306 52.7015 64.1128 53.3467C67.379 53.7499 70.5241 54.6773 73.629 55.8063C76.5322 56.8547 79.3548 58.387 82.4596 58.8305C83.1451 58.9112 86.8951 59.395 90.0806 57.8628C90.1209 57.8628 90.1612 57.8225 90.1612 57.8225C92.4596 56.6934 94.0725 55.3628 95.2015 54.1531" stroke="#1D86BC" stroke-width="2" stroke-miterlimit="10" stroke-linecap="round" stroke-linejoin="round"/>
    <path d="M74.1531 71.7742C74.1531 71.7742 78.9918 71.3306 81.7337 76.4919" stroke="#1D86BC" stroke-width="2" stroke-miterlimit="10" stroke-linecap="round" stroke-linejoin="round"/>
    <path d="M62.3789 74.1934C62.3789 74.1934 65.0402 76.1288 63.9918 79.0321" stroke="#1D86BC" stroke-width="2" stroke-miterlimit="10" stroke-linecap="round" stroke-linejoin="round"/>
    <path d="M76.1691 70.6046C76.8546 70.1207 77.8626 69.4353 79.1126 68.6691C79.1126 68.6691 79.1126 68.6691 79.1529 68.6288C81.1691 66.653 82.8626 64.3143 84.0723 61.7337L84.5562 60.7256" stroke="#1D86BC" stroke-width="2" stroke-miterlimit="10" stroke-linecap="round" stroke-linejoin="round"/>
    <path d="M71.1288 57.4194C71.7337 58.9113 71.9353 60.5242 71.6934 62.2178C70.9675 67.2984 66.2498 70.8468 61.1692 70.121C56.0885 69.3952 52.5401 64.6774 53.2659 59.5968C53.4272 58.5887 53.7095 57.621 54.153 56.7339" stroke="#1D86BC" stroke-width="2" stroke-miterlimit="10" stroke-linecap="round" stroke-linejoin="round"/>
    <path d="M76.0886 56.7739C76.0886 56.7739 83.8305 57.3788 85.6854 52.782" stroke="#1D86BC" stroke-width="2" stroke-miterlimit="10" stroke-linecap="round" stroke-linejoin="round"/>
    <path d="M68.1855 54.1127C68.1855 54.1127 73.5484 54.0724 75.242 51.1692" stroke="#1D86BC" stroke-width="2" stroke-miterlimit="10" stroke-linecap="round" stroke-linejoin="round"/>
    <path d="M66.1285 64.0066C67.3554 62.0686 66.779 59.5029 64.841 58.2759C62.903 57.049 60.3373 57.6255 59.1104 59.5635C57.8834 61.5015 58.4599 64.0671 60.3979 65.2941C62.3359 66.521 64.9015 65.9446 66.1285 64.0066Z" stroke="#1D86BC" stroke-width="2" stroke-miterlimit="10" stroke-linecap="round" stroke-linejoin="round"/>
    <path d="M62.8224 60.4839C63.5482 60.6049 64.0724 61.25 63.9515 61.9758C63.8305 62.7016 63.1853 63.2258 62.4595 63.1049C61.7337 62.9839 61.2095 62.3387 61.3305 61.6129" stroke="#1D86BC" stroke-width="2" stroke-miterlimit="10" stroke-linecap="round" stroke-linejoin="round"/>
    <path d="M31.5322 76.25C33.7096 77.8629 32.6209 78.4274 35.5645 80.0403C36.9355 80.8064 39.0725 80.6452 40.9677 81.4516C42.5 82.1371 43.8306 83.8306 45.6451 84.4355C47.2984 85 49.3548 84.4355 51.2096 84.8387C52.9435 85.2419 54.5161 86.6532 56.4113 86.8548C58.1855 87.0564 60.0806 86.0887 61.9355 86.0887C63.7096 86.0887 65.6048 87.0968 67.4596 86.8548C69.2338 86.6532 70.8064 85.2419 72.6209 84.7581C74.3548 84.3145 76.4113 84.7984 78.1451 84.1129C79.7984 83.4677 80.9677 81.6935 82.6209 80.8065C84.1532 79.9597 86.2903 79.9194 87.8225 78.8306" stroke="#1D86BC" stroke-width="2" stroke-miterlimit="10" stroke-linecap="round" stroke-linejoin="round"/>
    <path d="M87.2981 42.137C84.9594 40.7257 86.0078 40.0806 82.903 38.7499C81.4514 38.1451 79.3546 38.4677 77.4191 37.8628C75.8062 37.3386 74.3546 35.766 72.4594 35.3225C70.7659 34.9193 68.7901 35.6854 66.8949 35.4435C65.161 35.2015 63.4272 33.9515 61.532 33.9112C59.7578 33.8709 57.9836 34.9999 56.1288 35.1612C54.3546 35.3225 52.3788 34.516 50.5643 34.879C48.8304 35.2419 47.3788 36.8144 45.6046 37.4193C43.9514 38.0241 41.8143 37.7015 40.161 38.5483C38.5885 39.3548 37.5804 41.2096 36.0078 42.258C34.5562 43.2257 32.4191 43.4677 31.0078 44.6773" stroke="#1D86BC" stroke-width="2" stroke-miterlimit="10" stroke-linecap="round" stroke-linejoin="round"/>
</svg>