<svg width="120" height="120" viewBox="0 0 120 120" fill="none" xmlns="http://www.w3.org/2000/svg">
    <circle cx="60" cy="60" r="60" fill="#F2F5FA"/>
    <path d="M88.1856 72.0966C87.5808 71.4917 85.726 69.7579 82.7421 69.274C79.4356 68.7498 76.9356 70.0805 76.2501 70.4837C73.9114 71.9756 70.2824 73.7901 65.5647 74.153C62.0163 74.4353 59.1937 73.7901 57.6614 73.4676C55.8872 73.0643 54.5969 72.5805 47.7018 69.5159C45.363 68.4675 43.3872 67.6208 41.976 66.9756C41.976 66.9756 39.0324 65.6046 37.0969 65.2014" stroke="#1D86BC" stroke-width="2" stroke-miterlimit="10" stroke-linecap="round" stroke-linejoin="round"/>
    <path d="M67.7019 73.8708C68.8713 74.2338 73.3471 75.766 74.3148 79.8789" stroke="#1D86BC" stroke-width="2" stroke-miterlimit="10" stroke-linecap="round" stroke-linejoin="round"/>
    <path d="M80.2015 50.0805C78.629 49.4757 76.3709 48.6692 73.629 47.9031C68.4677 46.4112 63.0241 45.766 57.6612 46.4515C52.137 47.1773 47.1773 49.516 42.6612 52.7015C41.4112 53.5886 40.2015 54.516 38.9919 55.4434C38.1854 56.0886 36.6532 57.3386 34.2741 58.9515C31.5725 60.8063 29.2338 62.1773 27.7015 63.0241C29.2741 62.7418 31.3709 62.3386 33.8306 61.6934C39.0322 60.3225 43.629 57.4999 48.5886 55.4434C53.508 53.387 58.8306 52.7015 64.1128 53.3466C67.379 53.7499 70.5241 54.6773 73.629 55.8063C76.5322 56.8547 79.3548 58.387 82.4596 58.8305C83.1451 58.9112 86.8951 59.395 90.0806 57.8628C90.1209 57.8628 90.1612 57.8225 90.1612 57.8225C92.4596 56.6934 94.0725 55.3628 95.2015 54.1531" stroke="#1D86BC" stroke-width="2" stroke-miterlimit="10" stroke-linecap="round" stroke-linejoin="round"/>
    <path d="M74.1531 71.7739C74.1531 71.7739 78.9918 71.3304 81.7337 76.4917" stroke="#1D86BC" stroke-width="2" stroke-miterlimit="10" stroke-linecap="round" stroke-linejoin="round"/>
    <path d="M62.3789 74.1934C62.3789 74.1934 65.0402 76.1288 63.9918 79.0321" stroke="#1D86BC" stroke-width="2" stroke-miterlimit="10" stroke-linecap="round" stroke-linejoin="round"/>
    <path d="M76.1691 70.6049C76.8546 70.121 77.8626 69.4355 79.1126 68.6694C79.1126 68.6694 79.1126 68.6694 79.1529 68.6291C81.1691 66.6532 82.8626 64.3145 84.0723 61.7339L84.5562 60.7258" stroke="#1D86BC" stroke-width="2" stroke-miterlimit="10" stroke-linecap="round" stroke-linejoin="round"/>
    <path d="M71.1288 57.4191C71.7337 58.9111 71.9353 60.524 71.6934 62.2175C70.9675 67.2982 66.2498 70.8466 61.1692 70.1207C56.0885 69.3949 52.5401 64.6772 53.2659 59.5965C53.4272 58.5885 53.7095 57.6207 54.153 56.7336" stroke="#1D86BC" stroke-width="2" stroke-miterlimit="10" stroke-linecap="round" stroke-linejoin="round"/>
    <path d="M76.0886 56.7742C76.0886 56.7742 83.8305 57.379 85.6854 52.7822" stroke="#1D86BC" stroke-width="2" stroke-miterlimit="10" stroke-linecap="round" stroke-linejoin="round"/>
    <path d="M68.1855 54.1127C68.1855 54.1127 73.5484 54.0724 75.242 51.1692" stroke="#1D86BC" stroke-width="2" stroke-miterlimit="10" stroke-linecap="round" stroke-linejoin="round"/>
    <path d="M62.621 65.9273C64.9148 65.9273 66.7742 64.0678 66.7742 61.7741C66.7742 59.4803 64.9148 57.6208 62.621 57.6208C60.3272 57.6208 58.4678 59.4803 58.4678 61.7741C58.4678 64.0678 60.3272 65.9273 62.621 65.9273Z" stroke="#1D86BC" stroke-width="2" stroke-miterlimit="10" stroke-linecap="round" stroke-linejoin="round"/>
    <path d="M62.8224 60.4836C63.5482 60.6046 64.0724 61.2498 63.9515 61.9756C63.8305 62.7014 63.1853 63.2256 62.4595 63.1046C61.7337 62.9836 61.2095 62.3385 61.3305 61.6127" stroke="#1D86BC" stroke-width="2" stroke-miterlimit="10" stroke-linecap="round" stroke-linejoin="round"/>
    <path d="M27.782 68.0645C28.3868 70.1612 27.4191 70.1209 28.5078 72.5403C28.9917 73.7096 30.4433 74.5161 31.29 75.9274C31.9352 77.0967 31.9352 78.8709 32.8223 80.1209C33.5884 81.2499 35.2013 81.7338 36.1691 82.8628C37.0965 83.9112 37.3788 85.6048 38.5078 86.5725C39.5562 87.5 41.2497 87.6209 42.4191 88.4677C43.5481 89.2338 44.2739 90.8064 45.5642 91.4516C46.8142 92.0967 48.5078 91.7741 49.8788 92.2177C51.2094 92.6612 52.2981 93.9112 53.7094 94.1935C55.0804 94.4758 56.6933 93.7096 58.1852 93.7903C59.5965 93.8709 60.9675 94.758 62.4997 94.6774" stroke="#1D86BC" stroke-width="2" stroke-miterlimit="10" stroke-linecap="round" stroke-linejoin="round"/>
</svg>