<svg width="120" height="120" viewBox="0 0 120 120" fill="none" xmlns="http://www.w3.org/2000/svg">
    <circle cx="60" cy="60" r="60" fill="#F2F5FA"/>
    <path d="M88.1856 72.0966C87.5808 71.4917 85.7259 69.7579 82.7421 69.274C79.4356 68.7498 76.9356 70.0805 76.2501 70.4837C73.9114 71.9756 70.2824 73.7901 65.5646 74.153C62.0162 74.4353 59.1937 73.7901 57.6614 73.4676C55.8872 73.0643 54.5969 72.5805 47.7017 69.5159C45.363 68.4675 43.3872 67.6208 41.9759 66.9756C41.9759 66.9756 39.0324 65.6046 37.0969 65.2014" stroke="#1D86BC" stroke-width="2" stroke-miterlimit="10" stroke-linecap="round" stroke-linejoin="round"/>
    <path d="M67.7019 73.8708C68.8712 74.2338 73.347 75.766 74.3148 79.8789" stroke="#1D86BC" stroke-width="2" stroke-miterlimit="10" stroke-linecap="round" stroke-linejoin="round"/>
    <path d="M80.2016 50.0805C78.629 49.4757 76.3709 48.6692 73.629 47.9031C68.4677 46.4112 63.0242 45.766 57.6612 46.4515C52.1371 47.1773 47.1774 49.516 42.6612 52.7015C41.4112 53.5886 40.2016 54.516 38.9919 55.4434C38.1854 56.0886 36.6532 57.3386 34.2742 58.9515C31.5725 60.8063 29.2338 62.1773 27.7016 63.0241C29.2741 62.7418 31.3709 62.3386 33.8306 61.6934C39.0322 60.3225 43.75 59.5563 48.7096 57.5805C50.1209 57.016 55.8467 54.7176 62.5806 56.6934C68.4677 58.4273 68.1451 57.5805 71.0887 57.3789C73.2258 57.2176 79.3145 58.387 82.4193 58.8305C83.1048 58.9112 86.8548 59.395 90.0403 57.8628C90.0806 57.8628 90.1209 57.8225 90.1209 57.8225C92.4193 56.6934 94.0322 55.3628 95.1612 54.1531" stroke="#1D86BC" stroke-width="2" stroke-miterlimit="10" stroke-linecap="round" stroke-linejoin="round"/>
    <path d="M74.1531 71.7739C74.1531 71.7739 78.9918 71.3304 81.7337 76.4917" stroke="#1D86BC" stroke-width="2" stroke-miterlimit="10" stroke-linecap="round" stroke-linejoin="round"/>
    <path d="M62.379 74.1934C62.379 74.1934 65.0403 76.1288 63.9919 79.0321" stroke="#1D86BC" stroke-width="2" stroke-miterlimit="10" stroke-linecap="round" stroke-linejoin="round"/>
    <path d="M76.1691 70.6049C76.8546 70.121 77.8627 69.4355 79.1127 68.6694C79.1127 68.6694 79.1127 68.6694 79.153 68.6291C81.1691 66.6532 82.8627 64.3145 84.0724 61.7339L84.5562 60.7258" stroke="#1D86BC" stroke-width="2" stroke-miterlimit="10" stroke-linecap="round" stroke-linejoin="round"/>
    <path d="M71.1289 57.4191C71.7337 58.9111 71.9353 60.524 71.6934 62.2175C70.9676 67.2982 66.2499 70.8466 61.1692 70.1207C56.0886 69.3949 52.5402 64.6772 53.266 59.5965C53.4273 58.5885 53.7095 57.6207 54.1531 56.7336" stroke="#1D86BC" stroke-width="2" stroke-miterlimit="10" stroke-linecap="round" stroke-linejoin="round"/>
    <path d="M76.0886 57.9839C76.0886 57.9839 83.8305 58.5887 85.6854 53.9919" stroke="#1D86BC" stroke-width="2" stroke-miterlimit="10" stroke-linecap="round" stroke-linejoin="round"/>
    <path d="M68.1856 57.7419C68.1856 57.7419 73.5485 57.7016 75.242 54.7983" stroke="#1D86BC" stroke-width="2" stroke-miterlimit="10" stroke-linecap="round" stroke-linejoin="round"/>
    <path d="M66.1284 64.0066C67.3554 62.0686 66.7789 59.5029 64.8409 58.2759C62.9029 57.049 60.3373 57.6255 59.1103 59.5635C57.8834 61.5015 58.4598 64.0671 60.3978 65.2941C62.3358 66.521 64.9015 65.9446 66.1284 64.0066Z" stroke="#1D86BC" stroke-width="2" stroke-miterlimit="10" stroke-linecap="round" stroke-linejoin="round"/>
    <path d="M62.8225 60.4836C63.5483 60.6046 64.0725 61.2498 63.9515 61.9756C63.8306 62.7014 63.1854 63.2256 62.4596 63.1046C61.7338 62.9836 61.2096 62.3385 61.3306 61.6127" stroke="#1D86BC" stroke-width="2" stroke-miterlimit="10" stroke-linecap="round" stroke-linejoin="round"/>
</svg>