<svg width="26" height="27" viewBox="0 0 26 27" fill="none" xmlns="http://www.w3.org/2000/svg">
<path d="M16.25 14.5664H17.875V17.6133L20.5156 19.1875L19.7031 20.5586L16.25 18.5781V14.5664ZM20.5664 9.18359H5.43359V21.0664H10.4609C9.98698 20.0846 9.75 19.0013 9.75 17.8164C9.81771 15.6836 10.5625 13.9062 11.9844 12.4844C13.4062 11.0625 15.1836 10.3177 17.3164 10.25C18.5013 10.25 19.5846 10.487 20.5664 10.9609V9.18359ZM5.43359 23.25C4.79036 23.25 4.26562 23.0384 3.85938 22.6152C3.45312 22.1921 3.25 21.6758 3.25 21.0664V5.93359C3.25 5.29036 3.45312 4.76562 3.85938 4.35938C4.26562 3.95312 4.79036 3.75 5.43359 3.75H6.5V1.56641H8.68359V3.75H17.3164V1.56641H19.5V3.75H20.5664C21.1758 3.75 21.6921 3.96159 22.1152 4.38477C22.5384 4.80794 22.75 5.32422 22.75 5.93359V12.5352C23.4271 13.2122 23.9518 14.0078 24.3242 14.9219C24.6966 15.8359 24.8997 16.8008 24.9336 17.8164C24.8659 19.9831 24.1211 21.7773 22.6992 23.1992C21.2773 24.6211 19.4831 25.3659 17.3164 25.4336C16.3008 25.3997 15.3359 25.1966 14.4219 24.8242C13.5078 24.4518 12.7122 23.9271 12.0352 23.25H5.43359ZM17.3164 12.5859C15.8268 12.6198 14.5911 13.1276 13.6094 14.1094C12.6276 15.0911 12.1198 16.3268 12.0859 17.8164C12.1198 19.306 12.6276 20.5501 13.6094 21.5488C14.5911 22.5475 15.8268 23.0638 17.3164 23.0977C18.806 23.0638 20.0501 22.5475 21.0488 21.5488C22.0475 20.5501 22.5638 19.306 22.5977 17.8164C22.5638 16.3268 22.0475 15.0911 21.0488 14.1094C20.0501 13.1276 18.806 12.6198 17.3164 12.5859Z" fill="white" fill-opacity="0.5"/>
</svg>
