<svg width="120" height="120" viewBox="0 0 120 120" fill="none" xmlns="http://www.w3.org/2000/svg">
    <circle cx="60" cy="60" r="49" stroke="#F37110" stroke-width="2"/>
    <circle cx="60" cy="60" r="59.5" stroke="#E5E5E5"/>
    <path d="M42.7619 60.6162L42.7619 60.6162L44.2454 44.2625H75.755L77.2385 60.6162C77.2831 61.1072 77.225 61.6021 77.0678 62.0694C76.9106 62.5367 76.6578 62.9661 76.3255 63.3303C75.9932 63.6945 75.5887 63.9855 75.1377 64.1847C74.6868 64.3839 74.1993 64.4871 73.7063 64.4875H46.2941C45.8011 64.4871 45.3136 64.3839 44.8626 64.1847C44.4117 63.9855 44.0072 63.6945 43.6749 63.3303C43.3426 62.9661 43.0898 62.5367 42.9326 62.0694C42.7754 61.6021 42.7173 61.1072 42.7619 60.6162Z" fill="white" stroke="white" stroke-width="0.4"/>
    <path d="M72.925 47.7554V40.3125C72.925 38.3764 72.1559 36.5196 70.7869 35.1506C69.4179 33.7816 67.5611 33.0125 65.625 33.0125H60H59.9997C59.5334 33.0119 59.0716 33.1033 58.6406 33.2815C58.2097 33.4597 57.8181 33.7212 57.4884 34.0509C57.1587 34.3806 56.8972 34.7722 56.719 35.2031C56.5408 35.6341 56.4494 36.0959 56.45 36.5623C56.45 36.5623 56.45 36.5624 56.45 36.5625L56.05 36.5628C56.0497 36.2914 56.0773 36.0213 56.1321 35.7569C55.9997 35.3141 55.759 34.9065 55.4262 34.5738C54.8988 34.0463 54.1834 33.75 53.4375 33.75H52.5C51.0082 33.75 49.5774 34.3426 48.5225 35.3975C47.4676 36.4524 46.875 37.8832 46.875 39.375V47.8463C46.9401 47.8124 47.0069 47.7821 47.075 47.7554M72.925 47.7554L70.5125 47.8125C70.5125 47.7456 70.5108 47.679 70.5074 47.6125M72.925 47.7554C72.6914 47.6639 72.4423 47.6151 72.1896 47.6125H72.1875H70.5074M72.925 47.7554L70.5074 47.6125M47.075 47.7554V47.972C47.3068 47.8697 47.5576 47.8152 47.8125 47.8125H49.4875C49.4875 47.7456 49.4892 47.679 49.4926 47.6125M47.075 47.7554C47.3086 47.6639 47.5577 47.6151 47.8104 47.6125L47.8125 47.6125L49.4926 47.6125M47.075 47.7554V39.375C47.075 37.9362 47.6466 36.5563 48.6639 35.5389C49.6813 34.5216 51.0612 33.95 52.5 33.95H53.4375C54.1304 33.95 54.7949 34.2252 55.2848 34.7152C55.7748 35.2051 56.05 35.8696 56.05 36.5625H56.25L70.5074 47.6125M49.4926 47.6125H49.6875V47.8125C49.6875 46.8179 50.0826 45.8641 50.7859 45.1609C51.4891 44.4576 52.4429 44.0625 53.4375 44.0625H66.5625C67.5571 44.0625 68.5109 44.4576 69.2141 45.1609C69.9174 45.8641 70.3125 46.8179 70.3125 47.8125V47.6125H70.5074M49.4926 47.6125C49.5419 46.6377 49.9509 45.7129 50.6444 45.0194C51.3852 44.2787 52.3899 43.8625 53.4375 43.8625H66.5625C67.6101 43.8625 68.6148 44.2787 69.3556 45.0194C70.0491 45.7129 70.4581 46.6377 70.5074 47.6125" fill="white" stroke="white" stroke-width="0.4"/>
    <path d="M47.8125 47.6125L47.8104 47.6125C47.5577 47.6151 47.3086 47.6639 47.075 47.7554V39.375C47.075 37.9362 47.6466 36.5563 48.6639 35.5389C49.6813 34.5216 51.0612 33.95 52.5 33.95H53.4375C54.1304 33.95 54.7949 34.2252 55.2848 34.7152C55.7748 35.2051 56.05 35.8696 56.05 36.5625V43.8625H53.4375C52.3899 43.8625 51.3852 44.2787 50.6444 45.0194C49.9509 45.7129 49.5419 46.6377 49.4926 47.6125L47.8125 47.6125Z" fill="white" stroke="white" stroke-width="0.4"/>
    <path d="M80.3008 72.8795C82.7526 75.2858 84.291 78.47 84.6522 81.8863C84.6522 81.8869 84.6523 81.8875 84.6524 81.8882L85.0944 86.9875H34.9051L35.3329 81.9234C35.6865 78.4981 37.2235 75.3034 39.6791 72.8893C42.1008 70.5085 45.2666 69.034 48.6443 68.7107C49.5998 70.8948 51.1655 72.758 53.1546 74.0757C55.1844 75.4204 57.5652 76.1375 60 76.1375C62.4348 76.1375 64.8156 75.4204 66.8454 74.0757C68.8345 72.758 70.4001 70.8948 71.3557 68.7108C74.725 69.0359 77.8828 70.5065 80.3008 72.8795Z" fill="white" stroke="white" stroke-width="0.4"/>
    <path d="M83.1756 81.8499L83.1756 81.8499L83.1752 81.8461C82.836 78.6437 81.4878 75.632 79.3254 73.2458C77.3854 71.1051 74.8801 69.5673 72.1081 68.8029C75.1934 69.261 78.0638 70.684 80.3008 72.8795C82.7527 75.2858 84.2911 78.4701 84.6522 81.8864L85.0945 86.9875H83.621L83.1756 81.8499Z" fill="white" stroke="white" stroke-width="0.4"/>
    <path d="M77.6125 42.1875C77.611 42.6313 77.4341 43.0565 77.1203 43.3703C76.8064 43.6841 76.3811 43.8611 75.9372 43.8625H44.0625C43.6183 43.8625 43.1922 43.686 42.8781 43.3719C42.564 43.0578 42.3875 42.6317 42.3875 42.1875C42.3875 41.7433 42.564 41.3172 42.8781 41.0031C43.1922 40.689 43.6183 40.5125 44.0625 40.5125H75.9372C76.3811 40.5139 76.8064 40.6909 77.1203 41.0047C77.4341 41.3185 77.611 41.7437 77.6125 42.1875Z" fill="white" stroke="white" stroke-width="0.4"/>
    <path d="M76.3615 41.8707C76.6597 41.6085 76.8747 41.2677 76.9841 40.8904C77.1986 41.0611 77.3688 41.283 77.478 41.5375C77.624 41.8778 77.6526 42.257 77.5593 42.6154C77.4659 42.9737 77.2559 43.2908 76.9624 43.5166C76.669 43.7424 76.3087 43.8641 75.9384 43.8625H75.9375H44.0628C43.6189 43.8611 43.1936 43.6841 42.8797 43.3702C42.5797 43.0702 42.4047 42.6682 42.3887 42.2456C42.6221 42.3375 42.8712 42.3859 43.1238 42.3875L43.1238 42.3875H43.125L75 42.3875L75.0009 42.3875C75.502 42.3851 75.9852 42.2016 76.3615 41.8707Z" fill="white" stroke="white" stroke-width="0.4"/>
    <path d="M66.5621 68.6376H66.5627H69.9377C70.2696 68.6376 70.6017 68.6523 70.9337 68.6759C70.0045 70.7354 68.5114 72.4925 66.6247 73.7424C64.6604 75.0437 62.3564 75.7376 60.0002 75.7376C57.644 75.7376 55.34 75.0437 53.3757 73.7424C51.4889 72.4925 49.9958 70.7353 49.0666 68.6758C49.3947 68.6522 49.7234 68.6376 50.0552 68.6376L53.4377 68.6376L53.4383 68.6376C53.9879 68.636 54.5146 68.4169 54.9033 68.0282C55.292 67.6396 55.511 67.1129 55.5127 66.5632V66.5626V63.8832C56.9152 64.5435 58.4474 64.8867 60.0002 64.8867C61.553 64.8867 63.0852 64.5435 64.4877 63.8832L64.4877 66.5626L64.4877 66.5632C64.4893 67.1129 64.7084 67.6396 65.0971 68.0282C65.4858 68.4169 66.0124 68.636 66.5621 68.6376Z" fill="white" stroke="white" stroke-width="0.4"/>
    <path d="M55.5125 63.8832C56.915 64.5435 58.4472 64.8867 60 64.8867C61.5528 64.8867 63.085 64.5435 64.4875 63.8832V64.3767C63.0924 65.0655 61.557 65.4242 60 65.4242C58.443 65.4242 56.9076 65.0655 55.5125 64.3767V63.8832Z" fill="white" stroke="white" stroke-width="0.4"/>
    <path d="M72.1869 54.175L70.5119 54.175C70.5125 54.1293 70.5125 54.0845 70.5125 54.0412L70.5125 54.0375V48.0125H72.1872C72.6311 48.0139 73.0564 48.1909 73.3702 48.5047C73.6841 48.8186 73.8611 49.2439 73.8625 49.6878V52.4997C73.8611 52.9436 73.6841 53.3689 73.3702 53.6828C73.0563 53.9967 72.631 54.1736 72.187 54.175C72.187 54.175 72.1869 54.175 72.1869 54.175Z" fill="white" stroke="white" stroke-width="0.4"/>
    <path d="M46.6297 48.5047C46.9436 48.1909 47.3689 48.0139 47.8128 48.0125H49.4875V54.175L47.8131 54.175C47.813 54.175 47.813 54.175 47.8129 54.175C47.369 54.1736 46.9436 53.9967 46.6297 53.6828C46.3159 53.3689 46.1389 52.9436 46.1375 52.4997V49.6878C46.1389 49.2439 46.3159 48.8186 46.6297 48.5047Z" fill="white" stroke="white" stroke-width="0.4"/>
    <path d="M49.8875 44.2625H70.1125V54.375C70.1125 57.057 69.0471 59.6292 67.1506 61.5256C65.2542 63.4221 62.682 64.4875 60 64.4875C57.318 64.4875 54.7458 63.4221 52.8494 61.5256C50.9529 59.6292 49.8875 57.057 49.8875 54.375V44.2625Z" fill="white" stroke="white" stroke-width="0.4"/>
    <path d="M53.6375 62.2348V54.5259L60 52.708L66.3625 54.5259V62.2348C64.563 63.6915 62.3171 64.4872 60 64.4872C57.6829 64.4872 55.437 63.6915 53.6375 62.2348Z" fill="white" stroke="white" stroke-width="0.4"/>
    <path d="M58.204 63.9499V63.95L58.2092 63.9498C60.0085 63.9033 61.7174 63.151 62.9669 61.8554C64.2162 60.5601 64.9061 58.8255 64.8878 57.0261V54.1047L66.3628 54.5258V62.2348C64.7364 63.5533 62.7393 64.3336 60.6482 64.4662C59.1755 64.5596 57.7085 64.3283 56.3478 63.7982C56.9337 63.8991 57.5283 63.95 58.1253 63.9499C58.1253 63.9499 58.1253 63.9499 58.1253 63.9499H58.204Z" fill="white" stroke="white" stroke-width="0.4"/>
    <mask id="path-17-inside-1" fill="white">
        <path d="M85.7813 81.7687C85.378 77.8499 83.5339 74.2205 80.6065 71.5841C77.6791 68.9477 73.8771 67.4923 69.9376 67.5H66.5626C66.3139 67.5 66.0755 67.4012 65.8997 67.2254C65.7239 67.0496 65.6251 66.8111 65.6251 66.5625V65.625H73.7063C74.3572 65.6242 75.0009 65.488 75.5963 65.225C76.1917 64.9621 76.726 64.5782 77.165 64.0977C77.6041 63.6172 77.9384 63.0506 78.1467 62.4339C78.3551 61.8172 78.4328 61.164 78.3751 60.5156L76.9501 44.8031C77.5623 44.5674 78.0726 44.1248 78.3925 43.5521C78.7124 42.9794 78.8217 42.3128 78.7015 41.668C78.5812 41.0231 78.2389 40.4407 77.734 40.0218C77.2292 39.603 76.5936 39.3741 75.9376 39.375H74.0063C73.7726 37.3144 72.7896 35.4116 71.2442 34.0287C69.6988 32.6458 67.6989 31.8793 65.6251 31.875H60.0001C58.755 31.8766 57.5613 32.3723 56.6813 33.2531C56.4707 33.4612 56.2821 33.6905 56.1188 33.9375C55.7693 33.5809 55.3521 33.2977 54.8917 33.1045C54.4313 32.9114 53.9369 32.8121 53.4376 32.8125H52.5001C50.7602 32.8145 49.0922 33.5065 47.8619 34.7368C46.6316 35.9671 45.9396 37.6351 45.9376 39.375H44.0626C43.4066 39.3741 42.771 39.603 42.2662 40.0218C41.7613 40.4407 41.419 41.0231 41.2987 41.668C41.1784 42.3128 41.2877 42.9794 41.6077 43.5521C41.9276 44.1248 42.4379 44.5674 43.0501 44.8031L41.6251 60.5156C41.5674 61.164 41.6451 61.8172 41.8534 62.4339C42.0618 63.0506 42.3961 63.6172 42.8351 64.0977C43.2742 64.5782 43.8085 64.9621 44.4039 65.225C44.9993 65.488 45.6429 65.6242 46.2938 65.625H54.3751V66.5625C54.3751 66.8111 54.2763 67.0496 54.1005 67.2254C53.9247 67.4012 53.6862 67.5 53.4376 67.5H50.0532C46.1029 67.4901 42.2906 68.9519 39.3597 71.6003C36.4287 74.2488 34.5893 77.8939 34.2001 81.825L33.7501 87.1125C33.739 87.2419 33.755 87.3722 33.7972 87.4951C33.8394 87.618 33.9068 87.7307 33.995 87.826C34.0833 87.9213 34.1905 87.9971 34.3097 88.0486C34.429 88.1001 34.5577 88.1261 34.6876 88.125H85.3126C85.4431 88.1255 85.5724 88.0988 85.692 88.0465C85.8116 87.9942 85.919 87.9175 86.0072 87.8213C86.0955 87.7251 86.1627 87.6115 86.2045 87.4878C86.2463 87.3642 86.2618 87.2331 86.2501 87.1031L85.7813 81.7687ZM65.6251 61.7812C64.0782 63.0173 62.1672 63.7092 60.1876 63.75H60.0188C57.9813 63.761 55.9973 63.0985 54.3751 61.8656V55.0781L60.0001 53.475L65.6251 55.0781V61.7812ZM75.7782 62.8312C75.5172 63.1218 75.1976 63.3539 74.8405 63.5122C74.4835 63.6705 74.0969 63.7516 73.7063 63.75H66.1032C66.4688 63.4969 66.8251 63.2344 67.172 62.9437L67.2188 62.8969C67.2213 62.8969 67.2237 62.8959 67.2255 62.8941C67.2272 62.8924 67.2282 62.89 67.2282 62.8875C69.4465 60.9474 70.8524 58.2428 71.1657 55.3125H72.1876C72.9328 55.3103 73.6469 55.0132 74.1739 54.4863C74.7008 53.9593 74.9979 53.2452 75.0001 52.5V49.6875C74.9988 49.2942 74.9146 48.9056 74.7531 48.547C74.5916 48.1884 74.3563 47.8678 74.0626 47.6062V45H75.0845L76.5095 60.6844C76.5471 61.0736 76.5014 61.4665 76.3753 61.8367C76.2492 62.2069 76.0457 62.5459 75.7782 62.8312ZM67.5001 59.8125V54.7594L69.3751 52.8844V54.0375C69.3751 54.1219 69.3751 54.2156 69.3657 54.3469C69.3022 56.3139 68.6525 58.2171 67.5001 59.8125ZM72.1876 46.875H71.1563C71.0139 46.1912 70.7155 45.5496 70.2845 45H72.1876V46.875ZM73.1251 49.6875V52.5C73.1251 52.7486 73.0263 52.9871 72.8505 53.1629C72.6747 53.3387 72.4362 53.4375 72.1876 53.4375H71.2501V48.75H72.1876C72.4362 48.75 72.6747 48.8488 72.8505 49.0246C73.0263 49.2004 73.1251 49.4389 73.1251 49.6875ZM52.5001 34.6875H53.4376C53.9344 34.689 54.4105 34.887 54.7618 35.2383C55.1131 35.5896 55.3111 36.0657 55.3126 36.5625C55.3126 36.8111 55.4114 37.0496 55.5872 37.2254C55.763 37.4012 56.0014 37.5 56.2501 37.5C56.4987 37.5 56.7372 37.4012 56.913 37.2254C57.0888 37.0496 57.1876 36.8111 57.1876 36.5625C57.1861 36.1927 57.2578 35.8263 57.3986 35.4844C57.5395 35.1425 57.7466 34.8319 58.008 34.5704C58.2695 34.309 58.5801 34.1019 58.922 33.9611C59.2639 33.8202 59.6303 33.7485 60.0001 33.75H65.6251C67.2018 33.7518 68.7252 34.3213 69.9165 35.3542C71.1078 36.3871 71.8873 37.8144 72.1126 39.375H47.8126C47.8126 38.1318 48.3064 36.9395 49.1855 36.0604C50.0646 35.1814 51.2569 34.6875 52.5001 34.6875ZM43.1251 42.1875C43.1251 41.9389 43.2239 41.7004 43.3997 41.5246C43.5755 41.3488 43.8139 41.25 44.0626 41.25H75.9376C76.1862 41.25 76.4247 41.3488 76.6005 41.5246C76.7763 41.7004 76.8751 41.9389 76.8751 42.1875C76.8751 42.4361 76.7763 42.6746 76.6005 42.8504C76.4247 43.0262 76.1862 43.125 75.9376 43.125H44.0626C43.8139 43.125 43.5755 43.0262 43.3997 42.8504C43.2239 42.6746 43.1251 42.4361 43.1251 42.1875ZM50.6251 52.8844L52.5001 54.7594V59.9812C51.2856 58.3643 50.6277 56.3973 50.6251 54.375V52.8844ZM47.8126 46.875V45H49.7157C49.2847 45.5496 48.9863 46.1912 48.8438 46.875H47.8126ZM48.7501 48.75V53.4375H47.8126C47.5639 53.4375 47.3255 53.3387 47.1497 53.1629C46.9739 52.9871 46.8751 52.7486 46.8751 52.5V49.6875C46.8751 49.4389 46.9739 49.2004 47.1497 49.0246C47.3255 48.8488 47.5639 48.75 47.8126 48.75H48.7501ZM46.2938 63.75C45.9037 63.748 45.5181 63.6653 45.1615 63.5071C44.8048 63.3488 44.4848 63.1185 44.2215 62.8305C43.9582 62.5426 43.7573 62.2033 43.6316 61.8339C43.5058 61.4646 43.4578 61.0732 43.4907 60.6844L44.9157 45H45.9376V47.6062C45.6439 47.8678 45.4086 48.1884 45.2471 48.547C45.0855 48.9056 45.0014 49.2942 45.0001 49.6875V52.5C45.0023 53.2452 45.2993 53.9593 45.8263 54.4863C46.3533 55.0132 47.0674 55.3103 47.8126 55.3125H48.8063C48.9265 56.791 49.3389 58.231 50.0196 59.549C50.7003 60.867 51.6358 62.0368 52.772 62.9906H52.7813L52.8376 63.0469L52.847 63.0375C52.8495 63.0375 52.8518 63.0385 52.8536 63.0402C52.8554 63.042 52.8563 63.0444 52.8563 63.0469L52.847 63.0562C53.1452 63.3061 53.4583 63.5378 53.7845 63.75H46.2938ZM53.7095 53.325L50.6251 50.2406V47.8125C50.6273 47.0673 50.9243 46.3532 51.4513 45.8262C51.9783 45.2993 52.6924 45.0022 53.4376 45H66.5626C67.3078 45.0022 68.0219 45.2993 68.5489 45.8262C69.0758 46.3532 69.3729 47.0673 69.3751 47.8125V50.2406L66.2907 53.325L60.2532 51.6C60.0877 51.5531 59.9125 51.5531 59.747 51.6L53.7095 53.325ZM53.4376 69.375C54.1828 69.3728 54.8969 69.0757 55.4239 68.5488C55.9508 68.0218 56.2479 67.3077 56.2501 66.5625V65.625H63.7501V66.5625C63.7523 67.3077 64.0493 68.0218 64.5763 68.5488C65.1033 69.0757 65.8174 69.3728 66.5626 69.375H69.7407C68.753 71.0842 67.333 72.5034 65.6232 73.4901C63.9134 74.4768 61.9741 74.9963 60.0001 74.9963C58.026 74.9963 56.0867 74.4768 54.377 73.4901C52.6672 72.5034 51.2471 71.0842 50.2595 69.375H53.4376ZM75.0001 86.25V79.6875C75.0001 79.4389 74.9013 79.2004 74.7255 79.0246C74.5497 78.8488 74.3112 78.75 74.0626 78.75C73.8139 78.75 73.5755 78.8488 73.3997 79.0246C73.2239 79.2004 73.1251 79.4389 73.1251 79.6875V86.25H46.8751V79.6875C46.8751 79.4389 46.7763 79.2004 46.6005 79.0246C46.4247 78.8488 46.1862 78.75 45.9376 78.75C45.6889 78.75 45.4505 78.8488 45.2747 79.0246C45.0989 79.2004 45.0001 79.4389 45.0001 79.6875V86.25H35.7095L36.0657 82.0031C36.383 78.856 37.7551 75.9086 39.9592 73.6399C42.1632 71.3711 45.0697 69.9144 48.2063 69.5062C49.2851 71.7152 50.9626 73.5768 53.0477 74.879C55.1328 76.1812 57.5418 76.8716 60.0001 76.8716C62.4584 76.8716 64.8673 76.1812 66.9525 74.879C69.0376 73.5768 70.7151 71.7152 71.7938 69.5062C74.9188 69.915 77.8149 71.3651 80.0143 73.6224C82.2137 75.8796 83.5882 78.8123 83.9157 81.9469L84.2907 86.25H75.0001Z"/>
    </mask>
    <path d="M85.7813 81.7687C85.378 77.8499 83.5339 74.2205 80.6065 71.5841C77.6791 68.9477 73.8771 67.4923 69.9376 67.5H66.5626C66.3139 67.5 66.0755 67.4012 65.8997 67.2254C65.7239 67.0496 65.6251 66.8111 65.6251 66.5625V65.625H73.7063C74.3572 65.6242 75.0009 65.488 75.5963 65.225C76.1917 64.9621 76.726 64.5782 77.165 64.0977C77.6041 63.6172 77.9384 63.0506 78.1467 62.4339C78.3551 61.8172 78.4328 61.164 78.3751 60.5156L76.9501 44.8031C77.5623 44.5674 78.0726 44.1248 78.3925 43.5521C78.7124 42.9794 78.8217 42.3128 78.7015 41.668C78.5812 41.0231 78.2389 40.4407 77.734 40.0218C77.2292 39.603 76.5936 39.3741 75.9376 39.375H74.0063C73.7726 37.3144 72.7896 35.4116 71.2442 34.0287C69.6988 32.6458 67.6989 31.8793 65.6251 31.875H60.0001C58.755 31.8766 57.5613 32.3723 56.6813 33.2531C56.4707 33.4612 56.2821 33.6905 56.1188 33.9375C55.7693 33.5809 55.3521 33.2977 54.8917 33.1045C54.4313 32.9114 53.9369 32.8121 53.4376 32.8125H52.5001C50.7602 32.8145 49.0922 33.5065 47.8619 34.7368C46.6316 35.9671 45.9396 37.6351 45.9376 39.375H44.0626C43.4066 39.3741 42.771 39.603 42.2662 40.0218C41.7613 40.4407 41.419 41.0231 41.2987 41.668C41.1784 42.3128 41.2877 42.9794 41.6077 43.5521C41.9276 44.1248 42.4379 44.5674 43.0501 44.8031L41.6251 60.5156C41.5674 61.164 41.6451 61.8172 41.8534 62.4339C42.0618 63.0506 42.3961 63.6172 42.8351 64.0977C43.2742 64.5782 43.8085 64.9621 44.4039 65.225C44.9993 65.488 45.6429 65.6242 46.2938 65.625H54.3751V66.5625C54.3751 66.8111 54.2763 67.0496 54.1005 67.2254C53.9247 67.4012 53.6862 67.5 53.4376 67.5H50.0532C46.1029 67.4901 42.2906 68.9519 39.3597 71.6003C36.4287 74.2488 34.5893 77.8939 34.2001 81.825L33.7501 87.1125C33.739 87.2419 33.755 87.3722 33.7972 87.4951C33.8394 87.618 33.9068 87.7307 33.995 87.826C34.0833 87.9213 34.1905 87.9971 34.3097 88.0486C34.429 88.1001 34.5577 88.1261 34.6876 88.125H85.3126C85.4431 88.1255 85.5724 88.0988 85.692 88.0465C85.8116 87.9942 85.919 87.9175 86.0072 87.8213C86.0955 87.7251 86.1627 87.6115 86.2045 87.4878C86.2463 87.3642 86.2618 87.2331 86.2501 87.1031L85.7813 81.7687ZM65.6251 61.7812C64.0782 63.0173 62.1672 63.7092 60.1876 63.75H60.0188C57.9813 63.761 55.9973 63.0985 54.3751 61.8656V55.0781L60.0001 53.475L65.6251 55.0781V61.7812ZM75.7782 62.8312C75.5172 63.1218 75.1976 63.3539 74.8405 63.5122C74.4835 63.6705 74.0969 63.7516 73.7063 63.75H66.1032C66.4688 63.4969 66.8251 63.2344 67.172 62.9437L67.2188 62.8969C67.2213 62.8969 67.2237 62.8959 67.2255 62.8941C67.2272 62.8924 67.2282 62.89 67.2282 62.8875C69.4465 60.9474 70.8524 58.2428 71.1657 55.3125H72.1876C72.9328 55.3103 73.6469 55.0132 74.1739 54.4863C74.7008 53.9593 74.9979 53.2452 75.0001 52.5V49.6875C74.9988 49.2942 74.9146 48.9056 74.7531 48.547C74.5916 48.1884 74.3563 47.8678 74.0626 47.6062V45H75.0845L76.5095 60.6844C76.5471 61.0736 76.5014 61.4665 76.3753 61.8367C76.2492 62.2069 76.0457 62.5459 75.7782 62.8312ZM67.5001 59.8125V54.7594L69.3751 52.8844V54.0375C69.3751 54.1219 69.3751 54.2156 69.3657 54.3469C69.3022 56.3139 68.6525 58.2171 67.5001 59.8125ZM72.1876 46.875H71.1563C71.0139 46.1912 70.7155 45.5496 70.2845 45H72.1876V46.875ZM73.1251 49.6875V52.5C73.1251 52.7486 73.0263 52.9871 72.8505 53.1629C72.6747 53.3387 72.4362 53.4375 72.1876 53.4375H71.2501V48.75H72.1876C72.4362 48.75 72.6747 48.8488 72.8505 49.0246C73.0263 49.2004 73.1251 49.4389 73.1251 49.6875ZM52.5001 34.6875H53.4376C53.9344 34.689 54.4105 34.887 54.7618 35.2383C55.1131 35.5896 55.3111 36.0657 55.3126 36.5625C55.3126 36.8111 55.4114 37.0496 55.5872 37.2254C55.763 37.4012 56.0014 37.5 56.2501 37.5C56.4987 37.5 56.7372 37.4012 56.913 37.2254C57.0888 37.0496 57.1876 36.8111 57.1876 36.5625C57.1861 36.1927 57.2578 35.8263 57.3986 35.4844C57.5395 35.1425 57.7466 34.8319 58.008 34.5704C58.2695 34.309 58.5801 34.1019 58.922 33.9611C59.2639 33.8202 59.6303 33.7485 60.0001 33.75H65.6251C67.2018 33.7518 68.7252 34.3213 69.9165 35.3542C71.1078 36.3871 71.8873 37.8144 72.1126 39.375H47.8126C47.8126 38.1318 48.3064 36.9395 49.1855 36.0604C50.0646 35.1814 51.2569 34.6875 52.5001 34.6875ZM43.1251 42.1875C43.1251 41.9389 43.2239 41.7004 43.3997 41.5246C43.5755 41.3488 43.8139 41.25 44.0626 41.25H75.9376C76.1862 41.25 76.4247 41.3488 76.6005 41.5246C76.7763 41.7004 76.8751 41.9389 76.8751 42.1875C76.8751 42.4361 76.7763 42.6746 76.6005 42.8504C76.4247 43.0262 76.1862 43.125 75.9376 43.125H44.0626C43.8139 43.125 43.5755 43.0262 43.3997 42.8504C43.2239 42.6746 43.1251 42.4361 43.1251 42.1875ZM50.6251 52.8844L52.5001 54.7594V59.9812C51.2856 58.3643 50.6277 56.3973 50.6251 54.375V52.8844ZM47.8126 46.875V45H49.7157C49.2847 45.5496 48.9863 46.1912 48.8438 46.875H47.8126ZM48.7501 48.75V53.4375H47.8126C47.5639 53.4375 47.3255 53.3387 47.1497 53.1629C46.9739 52.9871 46.8751 52.7486 46.8751 52.5V49.6875C46.8751 49.4389 46.9739 49.2004 47.1497 49.0246C47.3255 48.8488 47.5639 48.75 47.8126 48.75H48.7501ZM46.2938 63.75C45.9037 63.748 45.5181 63.6653 45.1615 63.5071C44.8048 63.3488 44.4848 63.1185 44.2215 62.8305C43.9582 62.5426 43.7573 62.2033 43.6316 61.8339C43.5058 61.4646 43.4578 61.0732 43.4907 60.6844L44.9157 45H45.9376V47.6062C45.6439 47.8678 45.4086 48.1884 45.2471 48.547C45.0855 48.9056 45.0014 49.2942 45.0001 49.6875V52.5C45.0023 53.2452 45.2993 53.9593 45.8263 54.4863C46.3533 55.0132 47.0674 55.3103 47.8126 55.3125H48.8063C48.9265 56.791 49.3389 58.231 50.0196 59.549C50.7003 60.867 51.6358 62.0368 52.772 62.9906H52.7813L52.8376 63.0469L52.847 63.0375C52.8495 63.0375 52.8518 63.0385 52.8536 63.0402C52.8554 63.042 52.8563 63.0444 52.8563 63.0469L52.847 63.0562C53.1452 63.3061 53.4583 63.5378 53.7845 63.75H46.2938ZM53.7095 53.325L50.6251 50.2406V47.8125C50.6273 47.0673 50.9243 46.3532 51.4513 45.8262C51.9783 45.2993 52.6924 45.0022 53.4376 45H66.5626C67.3078 45.0022 68.0219 45.2993 68.5489 45.8262C69.0758 46.3532 69.3729 47.0673 69.3751 47.8125V50.2406L66.2907 53.325L60.2532 51.6C60.0877 51.5531 59.9125 51.5531 59.747 51.6L53.7095 53.325ZM53.4376 69.375C54.1828 69.3728 54.8969 69.0757 55.4239 68.5488C55.9508 68.0218 56.2479 67.3077 56.2501 66.5625V65.625H63.7501V66.5625C63.7523 67.3077 64.0493 68.0218 64.5763 68.5488C65.1033 69.0757 65.8174 69.3728 66.5626 69.375H69.7407C68.753 71.0842 67.333 72.5034 65.6232 73.4901C63.9134 74.4768 61.9741 74.9963 60.0001 74.9963C58.026 74.9963 56.0867 74.4768 54.377 73.4901C52.6672 72.5034 51.2471 71.0842 50.2595 69.375H53.4376ZM75.0001 86.25V79.6875C75.0001 79.4389 74.9013 79.2004 74.7255 79.0246C74.5497 78.8488 74.3112 78.75 74.0626 78.75C73.8139 78.75 73.5755 78.8488 73.3997 79.0246C73.2239 79.2004 73.1251 79.4389 73.1251 79.6875V86.25H46.8751V79.6875C46.8751 79.4389 46.7763 79.2004 46.6005 79.0246C46.4247 78.8488 46.1862 78.75 45.9376 78.75C45.6889 78.75 45.4505 78.8488 45.2747 79.0246C45.0989 79.2004 45.0001 79.4389 45.0001 79.6875V86.25H35.7095L36.0657 82.0031C36.383 78.856 37.7551 75.9086 39.9592 73.6399C42.1632 71.3711 45.0697 69.9144 48.2063 69.5062C49.2851 71.7152 50.9626 73.5768 53.0477 74.879C55.1328 76.1812 57.5418 76.8716 60.0001 76.8716C62.4584 76.8716 64.8673 76.1812 66.9525 74.879C69.0376 73.5768 70.7151 71.7152 71.7938 69.5062C74.9188 69.915 77.8149 71.3651 80.0143 73.6224C82.2137 75.8796 83.5882 78.8123 83.9157 81.9469L84.2907 86.25H75.0001Z" fill="#F37110" stroke="white" stroke-width="0.8" mask="url(#path-17-inside-1)"/>
    <path d="M64.2715 51.1465C64.1332 51.2848 63.9456 51.3625 63.75 51.3625C63.5544 51.3625 63.3668 51.2848 63.2285 51.1465C63.0902 51.0082 63.0125 50.8206 63.0125 50.625V49.6875C63.0125 49.4919 63.0902 49.3043 63.2285 49.166C63.3668 49.0277 63.5544 48.95 63.75 48.95C63.9456 48.95 64.1332 49.0277 64.2715 49.166C64.4098 49.3043 64.4875 49.4919 64.4875 49.6875V50.625C64.4875 50.8206 64.4098 51.0082 64.2715 51.1465Z" fill="#F37110" stroke="white" stroke-width="0.4"/>
    <path d="M56.7715 51.1465C56.6332 51.2848 56.4456 51.3625 56.25 51.3625C56.0544 51.3625 55.8668 51.2848 55.7285 51.1465C55.5902 51.0082 55.5125 50.8206 55.5125 50.625V49.6875C55.5125 49.4919 55.5902 49.3043 55.7285 49.166C55.8668 49.0277 56.0544 48.95 56.25 48.95C56.4456 48.95 56.6332 49.0277 56.7715 49.166C56.9098 49.3043 56.9875 49.4919 56.9875 49.6875V50.625C56.9875 50.8206 56.9098 51.0082 56.7715 51.1465Z" fill="#F37110" stroke="white" stroke-width="0.4"/>
    <path d="M62.8125 57.925H57.1875C56.9919 57.925 56.8043 57.8473 56.666 57.709C56.5277 57.5707 56.45 57.3831 56.45 57.1875C56.45 56.9919 56.5277 56.8043 56.666 56.666C56.8043 56.5277 56.9919 56.45 57.1875 56.45H62.8125C63.0081 56.45 63.1957 56.5277 63.334 56.666C63.4723 56.8043 63.55 56.9919 63.55 57.1875C63.55 57.3831 63.4723 57.5707 63.334 57.709C63.1957 57.8473 63.0081 57.925 62.8125 57.925Z" fill="#F37110" stroke="white" stroke-width="0.4"/>
    <path d="M63.334 59.4785C63.4723 59.6168 63.55 59.8044 63.55 60C63.55 60.1956 63.4723 60.3832 63.334 60.5215C63.1957 60.6598 63.0081 60.7375 62.8125 60.7375H57.1875C56.9919 60.7375 56.8043 60.6598 56.666 60.5215C56.5277 60.3832 56.45 60.1956 56.45 60C56.45 59.8044 56.5277 59.6168 56.666 59.4785C56.8043 59.3402 56.9919 59.2625 57.1875 59.2625H62.8125C63.0081 59.2625 63.1957 59.3402 63.334 59.4785Z" fill="#F37110" stroke="white" stroke-width="0.4"/>
</svg>