<svg width="20" height="20" viewBox="0 0 20 20" fill="none" xmlns="http://www.w3.org/2000/svg">
<path d="M4.16016 8.67969C4.97266 10.237 5.97982 11.6165 7.18164 12.8184C8.38346 14.0202 9.76302 15.0273 11.3203 15.8398L13.707 13.4531C14.0456 13.1484 14.418 13.0638 14.8242 13.1992C16.043 13.6055 17.3294 13.8086 18.6836 13.8086C18.9883 13.8086 19.2422 13.9102 19.4453 14.1133C19.6484 14.3164 19.75 14.5703 19.75 14.875V18.6836C19.75 18.9883 19.6484 19.2422 19.4453 19.4453C19.2422 19.6484 18.9883 19.75 18.6836 19.75C13.4701 19.6146 9.12826 17.8118 5.6582 14.3418C2.18815 10.8717 0.385417 6.52995 0.25 1.31641C0.25 1.01172 0.351562 0.757812 0.554688 0.554688C0.757812 0.351562 1.01172 0.25 1.31641 0.25H5.125C5.42969 0.25 5.68359 0.351562 5.88672 0.554688C6.08984 0.757812 6.19141 1.01172 6.19141 1.31641C6.19141 2.67057 6.39453 3.95703 6.80078 5.17578C6.9362 5.58203 6.85156 5.95443 6.54688 6.29297L4.16016 8.67969Z" fill="white" fill-opacity="0.5"/>
</svg>
