<svg width="120" height="120" viewBox="0 0 120 120" fill="none" xmlns="http://www.w3.org/2000/svg">
    <circle cx="60" cy="60" r="60" fill="#F2F5FA"/>
    <path d="M88.1856 72.0966C87.5808 71.4917 85.7259 69.7579 82.7421 69.274C79.4356 68.7498 76.9356 70.0805 76.2501 70.4837C73.9114 71.9756 70.2824 73.7901 65.5646 74.153C62.0162 74.4353 59.1937 73.7901 57.6614 73.4676C55.8872 73.0643 54.5969 72.5805 47.7017 69.5159C45.363 68.4675 43.3872 67.6208 41.9759 66.9756C41.9759 66.9756 39.0324 65.6046 37.0969 65.2014" stroke="#1D86BC" stroke-width="2" stroke-miterlimit="10" stroke-linecap="round" stroke-linejoin="round"/>
    <path d="M67.7019 73.8708C68.8712 74.2338 73.347 75.766 74.3148 79.8789" stroke="#1D86BC" stroke-width="2" stroke-miterlimit="10" stroke-linecap="round" stroke-linejoin="round"/>
    <path d="M80.2016 50.0805C78.629 49.4757 76.3709 48.6692 73.629 47.9031C68.4677 46.4112 63.0242 45.766 57.6612 46.4515C52.1371 47.1773 47.1774 49.516 42.6612 52.7015C41.4112 53.5886 40.2016 54.516 38.9919 55.4434C38.1854 56.0886 36.6532 57.3386 34.2741 58.9515C31.5725 60.8063 29.2338 62.1773 27.7016 63.0241C29.2741 62.7418 31.3709 62.3386 33.8306 61.6934C39.0322 60.3225 43.629 57.4999 48.5887 55.4434C53.508 53.387 58.8306 52.7015 64.1129 53.3466C67.379 53.7499 70.5242 54.6773 73.629 55.8063C76.5322 56.8547 79.3548 58.387 82.4596 58.8305C83.1451 58.9112 86.8951 59.395 90.0806 57.8628C90.1209 57.8628 90.1612 57.8225 90.1612 57.8225C92.4596 56.6934 94.0725 55.3628 95.2016 54.1531" stroke="#1D86BC" stroke-width="2" stroke-miterlimit="10" stroke-linecap="round" stroke-linejoin="round"/>
    <path d="M74.1531 71.7739C74.1531 71.7739 78.9918 71.3304 81.7337 76.4917" stroke="#1D86BC" stroke-width="2" stroke-miterlimit="10" stroke-linecap="round" stroke-linejoin="round"/>
    <path d="M62.379 74.1934C62.379 74.1934 65.0403 76.1288 63.9919 79.0321" stroke="#1D86BC" stroke-width="2" stroke-miterlimit="10" stroke-linecap="round" stroke-linejoin="round"/>
    <path d="M76.1691 70.6049C76.8546 70.121 77.8627 69.4355 79.1127 68.6694C79.1127 68.6694 79.1127 68.6694 79.153 68.6291C81.1691 66.6532 82.8627 64.3145 84.0724 61.7339L84.5562 60.7258" stroke="#1D86BC" stroke-width="2" stroke-miterlimit="10" stroke-linecap="round" stroke-linejoin="round"/>
    <path d="M71.1289 57.4191C71.7337 58.9111 71.9353 60.524 71.6934 62.2175C70.9676 67.2982 66.2499 70.8466 61.1692 70.1207C56.0886 69.3949 52.5402 64.6772 53.266 59.5965C53.4273 58.5885 53.7095 57.6207 54.1531 56.7336" stroke="#1D86BC" stroke-width="2" stroke-miterlimit="10" stroke-linecap="round" stroke-linejoin="round"/>
    <path d="M76.0886 56.7742C76.0886 56.7742 83.8305 57.379 85.6854 52.7822" stroke="#1D86BC" stroke-width="2" stroke-miterlimit="10" stroke-linecap="round" stroke-linejoin="round"/>
    <path d="M68.1856 54.1127C68.1856 54.1127 73.5485 54.0724 75.242 51.1692" stroke="#1D86BC" stroke-width="2" stroke-miterlimit="10" stroke-linecap="round" stroke-linejoin="round"/>
    <path d="M62.621 65.9273C64.9148 65.9273 66.7742 64.0678 66.7742 61.7741C66.7742 59.4803 64.9148 57.6208 62.621 57.6208C60.3272 57.6208 58.4678 59.4803 58.4678 61.7741C58.4678 64.0678 60.3272 65.9273 62.621 65.9273Z" stroke="#1D86BC" stroke-width="2" stroke-miterlimit="10" stroke-linecap="round" stroke-linejoin="round"/>
    <path d="M62.8225 60.4836C63.5483 60.6046 64.0725 61.2498 63.9515 61.9756C63.8306 62.7014 63.1854 63.2256 62.4596 63.1046C61.7338 62.9836 61.2096 62.3385 61.3306 61.6127" stroke="#1D86BC" stroke-width="2" stroke-miterlimit="10" stroke-linecap="round" stroke-linejoin="round"/>
    <rect x="20" y="38.9517" width="0.806452" height="24.1936" fill="#1D86BC"/>
    <rect x="20.8065" y="39.7581" width="0.80645" height="47.1774" transform="rotate(-90 20.8065 39.7581)" fill="#1D86BC"/>
    <rect x="20.8065" y="44.5967" width="0.806452" height="6.04839" transform="rotate(-90 20.8065 44.5967)" fill="#1D86BC"/>
    <rect x="20.8065" y="54.2742" width="0.806453" height="6.04839" transform="rotate(-90 20.8065 54.2742)" fill="#1D86BC"/>
    <rect x="20.8065" y="49.4355" width="0.806453" height="6.04839" transform="rotate(-90 20.8065 49.4355)" fill="#1D86BC"/>
    <rect x="20.8065" y="59.1128" width="0.806446" height="6.04839" transform="rotate(-90 20.8065 59.1128)" fill="#1D86BC"/>
</svg>