<svg width="120" height="120" viewBox="0 0 120 120" fill="none" xmlns="http://www.w3.org/2000/svg">
    <circle cx="60" cy="60" r="49" stroke="#F37110" stroke-width="2"/>
    <circle cx="60" cy="60" r="59.5" stroke="#E5E5E5"/>
    <mask id="path-3-inside-1" fill="white">
        <path d="M64.5252 40.8082L61.8083 40.0807L64.5252 40.8082Z"/>
    </mask>
    <path d="M64.5252 40.8082L61.8083 40.0807L64.5252 40.8082Z" fill="white"/>
    <path d="M64.6286 40.4218L61.9118 39.6943L61.7048 40.4671L64.4217 41.1946L64.6286 40.4218ZM61.7048 40.4671L64.4217 41.1946L64.6286 40.4218L61.9118 39.6943L61.7048 40.4671Z" fill="white" mask="url(#path-3-inside-1)"/>
    <mask id="path-5-inside-2" fill="white">
        <path d="M59.6717 58.9198L63.2942 59.8901L59.6717 58.9198Z"/>
    </mask>
    <path d="M59.6717 58.9198L63.2942 59.8901L59.6717 58.9198Z" fill="white"/>
    <path d="M59.5682 59.3062L63.1907 60.2765L63.3977 59.5037L59.7752 58.5334L59.5682 59.3062ZM63.3977 59.5037L59.7752 58.5334L59.5682 59.3062L63.1907 60.2765L63.3977 59.5037Z" fill="white" mask="url(#path-5-inside-2)"/>
    <path d="M59.401 66.4045L56.1649 65.5368L57.0317 62.3015L58.6497 62.7345L58.6498 62.7345L60.2678 63.1683L59.401 66.4045Z" fill="white" stroke="white" stroke-width="0.4"/>
    <mask id="path-8-inside-3" fill="white">
        <path d="M58.7015 62.5415L60.5128 63.0271L58.7015 62.5415Z"/>
    </mask>
    <path d="M58.7015 62.5415L60.5128 63.0271L58.7015 62.5415Z" fill="white"/>
    <path d="M58.598 62.9279L60.4092 63.4135L60.6164 62.6408L58.8051 62.1551L58.598 62.9279ZM60.6164 62.6408L58.8051 62.1551L58.598 62.9279L60.4092 63.4135L60.6164 62.6408Z" fill="white" mask="url(#path-8-inside-3)"/>
    <path d="M66.3625 75.7375H49.8875V72.3875H66.3625V74.0625V75.7375Z" fill="white" stroke="white" stroke-width="0.4"/>
    <mask id="path-11-inside-4" fill="white">
        <path d="M86.25 79.9311V59.0624C86.247 55.8309 84.962 52.7327 82.6771 50.4478C80.3921 48.1628 77.2939 46.8778 74.0625 46.8749H73.0219C72.4437 46.3097 71.7669 45.8554 71.025 45.5342L71.7656 42.7499C71.7985 42.6317 71.8075 42.5081 71.7923 42.3864C71.777 42.2647 71.7377 42.1472 71.6766 42.0408C71.6156 41.9344 71.534 41.8411 71.4366 41.7665C71.3392 41.6919 71.228 41.6374 71.1094 41.6061L68.3906 40.8749L69.1219 38.1561C69.325 38.0725 69.5223 37.9754 69.7125 37.8655C70.2477 37.5593 70.7165 37.1497 71.0915 36.6603C71.4666 36.171 71.7403 35.6118 71.8969 35.0155C71.9601 34.7768 71.9267 34.5229 71.8038 34.3087C71.681 34.0946 71.4786 33.9376 71.2406 33.8717L62.1844 31.4436C61.9432 31.3794 61.6864 31.4134 61.4703 31.5382C61.2542 31.6629 61.0963 31.8683 61.0312 32.1092C60.8709 32.7031 60.8298 33.3228 60.9103 33.9327C60.9907 34.5425 61.1911 35.1304 61.5 35.6624C61.6142 35.8478 61.7394 36.0263 61.875 36.1967L61.1438 38.9342L58.425 38.203C58.1851 38.1401 57.93 38.1748 57.7156 38.2995C57.5013 38.4243 57.3451 38.6289 57.2812 38.8686L52.425 56.9811C52.3926 57.0999 52.3841 57.224 52.4001 57.3461C52.4161 57.4683 52.4562 57.586 52.5182 57.6924C52.5801 57.7989 52.6626 57.892 52.7609 57.9662C52.8592 58.0404 52.9713 58.0944 53.0906 58.1249L54.9 58.6124L54.1781 61.3311C54.1116 61.5705 54.1419 61.8264 54.2625 62.0436C54.3914 62.2548 54.5959 62.4089 54.8344 62.4749L55.7437 62.7186L55.0125 65.4374C54.9492 65.678 54.9829 65.9338 55.1063 66.1499C55.168 66.2563 55.2504 66.3492 55.3486 66.4233C55.4468 66.4974 55.5588 66.551 55.6781 66.5811L59.2969 67.5561C59.3768 67.5747 59.4586 67.5841 59.5406 67.5842C59.7051 67.5873 59.8672 67.5451 60.0094 67.4624C60.117 67.4009 60.2113 67.3187 60.2869 67.2205C60.3626 67.1224 60.418 67.0102 60.45 66.8905L61.1719 64.1717L62.0813 64.4155C62.1596 64.4423 62.2422 64.455 62.325 64.453C62.4901 64.4516 62.6519 64.4063 62.7937 64.3217C62.9001 64.2623 62.9933 64.1817 63.0674 64.085C63.1416 63.9882 63.1952 63.8774 63.225 63.7592L63.9563 61.0405L65.7656 61.5186C65.8443 61.5441 65.9266 61.5567 66.0094 61.5561C66.2163 61.557 66.4176 61.4895 66.5821 61.364C66.7466 61.2385 66.865 61.0621 66.9188 60.8624L67.6594 58.078C67.9177 58.1073 68.1775 58.123 68.4375 58.1249C70.1449 58.1155 71.7819 57.4432 73.0031 56.2499H74.0625C74.8077 56.2521 75.5218 56.5491 76.0488 57.0761C76.5757 57.603 76.8728 58.3171 76.875 59.0624V73.0967L67.5 73.1249V72.1874C67.5 71.9387 67.4012 71.7003 67.2254 71.5244C67.0496 71.3486 66.8111 71.2499 66.5625 71.2499H49.6875C49.4389 71.2499 49.2004 71.3486 49.0246 71.5244C48.8488 71.7003 48.75 71.9387 48.75 72.1874V75.9374C48.75 76.186 48.8488 76.4244 49.0246 76.6003C49.2004 76.7761 49.4389 76.8749 49.6875 76.8749H66.5625C66.8111 76.8749 67.0496 76.7761 67.2254 76.6003C67.4012 76.4244 67.5 76.186 67.5 75.9374V74.9999L76.875 74.9717V78.7499H44.0625C42.3226 78.7518 40.6546 79.4439 39.4243 80.6742C38.194 81.9044 37.502 83.5725 37.5 85.3124V87.1874C37.5 87.436 37.5988 87.6744 37.7746 87.8503C37.9504 88.0261 38.1889 88.1249 38.4375 88.1249H88.125C88.3736 88.1249 88.6121 88.0261 88.7879 87.8503C88.9637 87.6744 89.0625 87.436 89.0625 87.1874V85.3124C89.061 84.2553 88.8046 83.2142 88.315 82.2774C87.8254 81.3406 87.117 80.5358 86.25 79.9311ZM69.6937 35.3999C69.4538 35.7457 69.14 36.0339 68.775 36.2436C68.4568 36.4297 68.1047 36.5504 67.7393 36.5987C67.3739 36.6469 67.0025 36.6219 66.6469 36.5249L64.8375 36.0374C64.2748 35.889 63.7721 35.5692 63.3992 35.1224C63.0263 34.6756 62.8016 34.1238 62.7562 33.5436L69.6937 35.3999ZM67.0875 38.4749L66.5813 40.3874L62.9531 39.4217L63.4688 37.5186C63.7526 37.653 64.0474 37.7627 64.35 37.8467L66.1594 38.3342C66.4631 38.4131 66.7741 38.4602 67.0875 38.4749ZM58.875 65.503L57.0656 65.0155L57.5531 63.2061L59.0063 63.5905L59.3625 63.6936L58.875 65.503ZM61.6594 62.3624L56.2312 60.9092L56.7094 59.0999L62.1469 60.553L61.6594 62.3624ZM65.3531 59.4655L54.4781 56.5592L58.8469 40.2561L69.7125 43.1717L69.2156 45.0561C67.6496 44.8689 66.0685 45.2519 64.7618 46.1351C63.4551 47.0183 62.5102 48.3426 62.1 49.8655C61.6927 51.3888 61.8475 53.0079 62.5361 54.4265C63.2247 55.845 64.4011 56.9682 65.85 57.5905L65.3531 59.4655ZM72.9656 52.7717C72.7262 53.6675 72.2265 54.4722 71.5297 55.084C70.8328 55.6958 69.9702 56.0871 69.0509 56.2085C68.1317 56.33 67.197 56.176 66.3652 55.7662C65.5335 55.3564 64.8419 54.709 64.3781 53.9061C64.0674 53.3749 63.8658 52.787 63.7853 52.1768C63.7048 51.5667 63.747 50.9466 63.9094 50.353C64.1757 49.3555 64.764 48.4738 65.5828 47.8449C66.4015 47.216 67.4051 46.875 68.4375 46.8749C68.846 46.8724 69.2529 46.9261 69.6469 47.0342C70.544 47.272 71.3501 47.7713 71.9625 48.4686V48.478C72.1666 48.705 72.3458 48.9533 72.4969 49.2186C72.8076 49.7498 73.0092 50.3377 73.0897 50.9479C73.1702 51.558 73.128 52.1781 72.9656 52.7717ZM65.625 74.9999H50.625V73.1249H65.625V74.9999ZM74.3438 54.403C74.5261 54.0374 74.6706 53.6542 74.775 53.2592C75.1852 51.7626 75.0421 50.1682 74.3719 48.7686C77.0497 48.849 79.5912 49.9683 81.4582 51.8896C83.3252 53.8109 84.3713 56.3833 84.375 59.0624V79.0217C83.7657 78.8442 83.1346 78.7527 82.5 78.7499H78.75V59.0624C78.7466 57.8708 78.2888 56.7254 77.4701 55.8596C76.6514 54.9938 75.5333 54.4729 74.3438 54.403ZM87.1875 86.2499H39.375V85.3124C39.375 84.0692 39.8689 82.8769 40.7479 81.9978C41.627 81.1187 42.8193 80.6249 44.0625 80.6249H82.5C83.7432 80.6249 84.9355 81.1187 85.8146 81.9978C86.6936 82.8769 87.1875 84.0692 87.1875 85.3124V86.2499Z"/>
    </mask>
    <path d="M86.25 79.9311V59.0624C86.247 55.8309 84.962 52.7327 82.6771 50.4478C80.3921 48.1628 77.2939 46.8778 74.0625 46.8749H73.0219C72.4437 46.3097 71.7669 45.8554 71.025 45.5342L71.7656 42.7499C71.7985 42.6317 71.8075 42.5081 71.7923 42.3864C71.777 42.2647 71.7377 42.1472 71.6766 42.0408C71.6156 41.9344 71.534 41.8411 71.4366 41.7665C71.3392 41.6919 71.228 41.6374 71.1094 41.6061L68.3906 40.8749L69.1219 38.1561C69.325 38.0725 69.5223 37.9754 69.7125 37.8655C70.2477 37.5593 70.7165 37.1497 71.0915 36.6603C71.4666 36.171 71.7403 35.6118 71.8969 35.0155C71.9601 34.7768 71.9267 34.5229 71.8038 34.3087C71.681 34.0946 71.4786 33.9376 71.2406 33.8717L62.1844 31.4436C61.9432 31.3794 61.6864 31.4134 61.4703 31.5382C61.2542 31.6629 61.0963 31.8683 61.0312 32.1092C60.8709 32.7031 60.8298 33.3228 60.9103 33.9327C60.9907 34.5425 61.1911 35.1304 61.5 35.6624C61.6142 35.8478 61.7394 36.0263 61.875 36.1967L61.1438 38.9342L58.425 38.203C58.1851 38.1401 57.93 38.1748 57.7156 38.2995C57.5013 38.4243 57.3451 38.6289 57.2812 38.8686L52.425 56.9811C52.3926 57.0999 52.3841 57.224 52.4001 57.3461C52.4161 57.4683 52.4562 57.586 52.5182 57.6924C52.5801 57.7989 52.6626 57.892 52.7609 57.9662C52.8592 58.0404 52.9713 58.0944 53.0906 58.1249L54.9 58.6124L54.1781 61.3311C54.1116 61.5705 54.1419 61.8264 54.2625 62.0436C54.3914 62.2548 54.5959 62.4089 54.8344 62.4749L55.7437 62.7186L55.0125 65.4374C54.9492 65.678 54.9829 65.9338 55.1063 66.1499C55.168 66.2563 55.2504 66.3492 55.3486 66.4233C55.4468 66.4974 55.5588 66.551 55.6781 66.5811L59.2969 67.5561C59.3768 67.5747 59.4586 67.5841 59.5406 67.5842C59.7051 67.5873 59.8672 67.5451 60.0094 67.4624C60.117 67.4009 60.2113 67.3187 60.2869 67.2205C60.3626 67.1224 60.418 67.0102 60.45 66.8905L61.1719 64.1717L62.0813 64.4155C62.1596 64.4423 62.2422 64.455 62.325 64.453C62.4901 64.4516 62.6519 64.4063 62.7937 64.3217C62.9001 64.2623 62.9933 64.1817 63.0674 64.085C63.1416 63.9882 63.1952 63.8774 63.225 63.7592L63.9563 61.0405L65.7656 61.5186C65.8443 61.5441 65.9266 61.5567 66.0094 61.5561C66.2163 61.557 66.4176 61.4895 66.5821 61.364C66.7466 61.2385 66.865 61.0621 66.9188 60.8624L67.6594 58.078C67.9177 58.1073 68.1775 58.123 68.4375 58.1249C70.1449 58.1155 71.7819 57.4432 73.0031 56.2499H74.0625C74.8077 56.2521 75.5218 56.5491 76.0488 57.0761C76.5757 57.603 76.8728 58.3171 76.875 59.0624V73.0967L67.5 73.1249V72.1874C67.5 71.9387 67.4012 71.7003 67.2254 71.5244C67.0496 71.3486 66.8111 71.2499 66.5625 71.2499H49.6875C49.4389 71.2499 49.2004 71.3486 49.0246 71.5244C48.8488 71.7003 48.75 71.9387 48.75 72.1874V75.9374C48.75 76.186 48.8488 76.4244 49.0246 76.6003C49.2004 76.7761 49.4389 76.8749 49.6875 76.8749H66.5625C66.8111 76.8749 67.0496 76.7761 67.2254 76.6003C67.4012 76.4244 67.5 76.186 67.5 75.9374V74.9999L76.875 74.9717V78.7499H44.0625C42.3226 78.7518 40.6546 79.4439 39.4243 80.6742C38.194 81.9044 37.502 83.5725 37.5 85.3124V87.1874C37.5 87.436 37.5988 87.6744 37.7746 87.8503C37.9504 88.0261 38.1889 88.1249 38.4375 88.1249H88.125C88.3736 88.1249 88.6121 88.0261 88.7879 87.8503C88.9637 87.6744 89.0625 87.436 89.0625 87.1874V85.3124C89.061 84.2553 88.8046 83.2142 88.315 82.2774C87.8254 81.3406 87.117 80.5358 86.25 79.9311ZM69.6937 35.3999C69.4538 35.7457 69.14 36.0339 68.775 36.2436C68.4568 36.4297 68.1047 36.5504 67.7393 36.5987C67.3739 36.6469 67.0025 36.6219 66.6469 36.5249L64.8375 36.0374C64.2748 35.889 63.7721 35.5692 63.3992 35.1224C63.0263 34.6756 62.8016 34.1238 62.7562 33.5436L69.6937 35.3999ZM67.0875 38.4749L66.5813 40.3874L62.9531 39.4217L63.4688 37.5186C63.7526 37.653 64.0474 37.7627 64.35 37.8467L66.1594 38.3342C66.4631 38.4131 66.7741 38.4602 67.0875 38.4749ZM58.875 65.503L57.0656 65.0155L57.5531 63.2061L59.0063 63.5905L59.3625 63.6936L58.875 65.503ZM61.6594 62.3624L56.2312 60.9092L56.7094 59.0999L62.1469 60.553L61.6594 62.3624ZM65.3531 59.4655L54.4781 56.5592L58.8469 40.2561L69.7125 43.1717L69.2156 45.0561C67.6496 44.8689 66.0685 45.2519 64.7618 46.1351C63.4551 47.0183 62.5102 48.3426 62.1 49.8655C61.6927 51.3888 61.8475 53.0079 62.5361 54.4265C63.2247 55.845 64.4011 56.9682 65.85 57.5905L65.3531 59.4655ZM72.9656 52.7717C72.7262 53.6675 72.2265 54.4722 71.5297 55.084C70.8328 55.6958 69.9702 56.0871 69.0509 56.2085C68.1317 56.33 67.197 56.176 66.3652 55.7662C65.5335 55.3564 64.8419 54.709 64.3781 53.9061C64.0674 53.3749 63.8658 52.787 63.7853 52.1768C63.7048 51.5667 63.747 50.9466 63.9094 50.353C64.1757 49.3555 64.764 48.4738 65.5828 47.8449C66.4015 47.216 67.4051 46.875 68.4375 46.8749C68.846 46.8724 69.2529 46.9261 69.6469 47.0342C70.544 47.272 71.3501 47.7713 71.9625 48.4686V48.478C72.1666 48.705 72.3458 48.9533 72.4969 49.2186C72.8076 49.7498 73.0092 50.3377 73.0897 50.9479C73.1702 51.558 73.128 52.1781 72.9656 52.7717ZM65.625 74.9999H50.625V73.1249H65.625V74.9999ZM74.3438 54.403C74.5261 54.0374 74.6706 53.6542 74.775 53.2592C75.1852 51.7626 75.0421 50.1682 74.3719 48.7686C77.0497 48.849 79.5912 49.9683 81.4582 51.8896C83.3252 53.8109 84.3713 56.3833 84.375 59.0624V79.0217C83.7657 78.8442 83.1346 78.7527 82.5 78.7499H78.75V59.0624C78.7466 57.8708 78.2888 56.7254 77.4701 55.8596C76.6514 54.9938 75.5333 54.4729 74.3438 54.403ZM87.1875 86.2499H39.375V85.3124C39.375 84.0692 39.8689 82.8769 40.7479 81.9978C41.627 81.1187 42.8193 80.6249 44.0625 80.6249H82.5C83.7432 80.6249 84.9355 81.1187 85.8146 81.9978C86.6936 82.8769 87.1875 84.0692 87.1875 85.3124V86.2499Z" fill="#F37110" stroke="white" stroke-width="0.8" mask="url(#path-11-inside-4)"/>
    <path d="M68.4375 54.175C67.9208 54.175 67.4157 54.0218 66.9861 53.7347C66.5565 53.4476 66.2216 53.0396 66.0239 52.5623C65.8261 52.0849 65.7744 51.5596 65.8752 51.0528C65.976 50.5461 66.2248 50.0805 66.5902 49.7152C66.9556 49.3498 67.4211 49.101 67.9278 49.0002C68.4346 48.8994 68.9599 48.9511 69.4373 49.1489C69.9146 49.3466 70.3227 49.6815 70.6097 50.1111C70.8968 50.5407 71.05 51.0458 71.05 51.5625C71.05 52.2554 70.7748 52.9199 70.2848 53.4098C69.7949 53.8997 69.1304 54.175 68.4375 54.175ZM68.4375 50.425C68.2125 50.425 67.9926 50.4917 67.8055 50.6167C67.6185 50.7417 67.4727 50.9193 67.3866 51.1272C67.3005 51.335 67.278 51.5638 67.3219 51.7844C67.3658 52.0051 67.4741 52.2077 67.6332 52.3668C67.7923 52.5259 67.9949 52.6342 68.2156 52.6781C68.4362 52.722 68.665 52.6995 68.8728 52.6134C69.0807 52.5273 69.2583 52.3815 69.3833 52.1945C69.5083 52.0074 69.575 51.7875 69.575 51.5625C69.575 51.2608 69.4552 50.9715 69.2418 50.7582C69.0285 50.5448 68.7392 50.425 68.4375 50.425Z" fill="#F37110" stroke="white" stroke-width="0.4"/>
</svg>