<svg width="120" height="120" viewBox="0 0 120 120" fill="none" xmlns="http://www.w3.org/2000/svg">
    <circle cx="60" cy="60" r="49" stroke="#F37110" stroke-width="2"/>
    <circle cx="60" cy="60" r="59.5" stroke="#E5E5E5"/>
    <path d="M55.976 79.9966C55.7194 74.9963 52.9606 70.4621 48.638 67.9356L41.73 60.2606C41.032 59.4785 40.041 59.0208 38.993 58.9966C38.6584 58.9922 38.3245 59.0316 38 59.1136V45.9966C38 43.7875 36.2091 41.9966 34 41.9966C31.7909 41.9966 30 43.7875 30 45.9966V64.9236C30.0009 66.4537 30.3907 67.9586 31.133 69.2966L40 85.2556V89.9966H42V84.9966C42.0002 84.8268 41.9569 84.6598 41.874 84.5116L32.881 68.3236C32.3043 67.2831 32.0011 66.1132 32 64.9236V45.9966C32 44.892 32.8954 43.9966 34 43.9966C35.1046 43.9966 36 44.892 36 45.9966V60.3496C34.7487 61.8037 34.7775 63.9623 36.067 65.3826L44.26 74.3966L45.74 73.0516L37.547 64.0366C36.893 63.3191 36.9195 62.214 37.607 61.5286C37.9624 61.1802 38.4424 60.9887 38.94 60.9966C39.4375 61.0091 39.9078 61.2261 40.24 61.5966L47.257 69.3966C47.3463 69.4861 47.4471 69.5631 47.557 69.6256C51.5352 71.9056 53.9923 76.1373 54 80.7226V89.9966H56V79.9966H55.976Z" fill="#F37110"/>
    <path d="M86 41.9966C83.7909 41.9966 82 43.7875 82 45.9966V59.1156C80.6402 58.7645 79.1985 59.207 78.27 60.2606L71.365 67.9336C67.0363 70.4551 64.2745 74.9932 64.024 79.9966H64V89.9966H66V80.7226C66.0102 76.1186 68.4861 71.873 72.488 69.5966C72.5834 69.5442 72.6695 69.4767 72.743 69.3966L79.756 61.5966C80.0882 61.2261 80.5585 61.0091 81.056 60.9966C81.554 60.9865 82.0347 61.1785 82.389 61.5286C83.0765 62.214 83.103 63.3191 82.449 64.0366L74.26 73.0496L75.74 74.3966L83.933 65.3846C85.2237 63.964 85.2524 61.804 84 60.3496V45.9966C84 44.892 84.8954 43.9966 86 43.9966C87.1046 43.9966 88 44.892 88 45.9966V64.8176C87.9985 66.0751 87.6601 67.3092 87.02 68.3916L78.12 84.5136C78.0399 84.662 77.9986 84.8281 78 84.9966V89.9966H80V85.2546L88.757 69.3816C89.5705 67.9981 89.9996 66.4225 90 64.8176V45.9966C90 43.7875 88.2091 41.9966 86 41.9966Z" fill="#F37110"/>
    <path d="M74.7835 44.4071C74.5246 44.105 68.2984 37 60.5 37C52.7016 37 46.4755 44.105 46.2166 44.4071C45.9278 44.7448 45.9278 45.2552 46.2166 45.5929C46.4755 45.895 52.7017 53 60.5 53C68.2983 53 74.5246 45.895 74.7835 45.5929C75.0722 45.2552 75.0722 44.7448 74.7835 44.4071ZM60.5 51.2222C57.221 51.2222 54.5528 48.4306 54.5528 45C54.5528 41.5694 57.221 38.7778 60.5 38.7778C63.779 38.7778 66.4473 41.5694 66.4473 45C66.4473 48.4306 63.779 51.2222 60.5 51.2222Z" fill="#F37110"/>
    <path d="M61.4464 43.4C61.4464 42.5952 61.8997 41.8872 62.5894 41.4517C61.9705 41.1725 61.2803 41 60.5387 41C58.0362 41 56 42.7945 56 45C56 47.2055 58.0362 49 60.5387 49C62.7792 49 64.6336 47.5582 65 45.6742C63.1721 46.1929 61.4464 44.9745 61.4464 43.4Z" fill="#F37110"/>
</svg>