<?xml version="1.0" encoding="UTF-8"?>
<svg version="1.1" xmlns="http://www.w3.org/2000/svg" width="120" height="120">
<path d="M0 0 C0.85207031 0.32742187 1.70414062 0.65484375 2.58203125 0.9921875 C16.84636987 7.14719345 26.40698003 19.98075232 32.703125 33.65625 C37.86040532 46.95333421 38.26103807 63.7886246 33.25390625 77.1875 C25.96278346 93.54142029 14.71451157 106.0228415 -2 113 C-2.76054688 113.32097656 -3.52109375 113.64195313 -4.3046875 113.97265625 C-19.22157904 119.0958698 -36.79797095 117.00742874 -50.875 110.71484375 C-64.67313221 103.83494172 -75.09169906 92.1539517 -81 78 C-81.48146484 76.85917969 -81.48146484 76.85917969 -81.97265625 75.6953125 C-86.61337175 62.18327575 -85.60899908 45.01956408 -80 32 C-79.67257813 31.14792969 -79.34515625 30.29585937 -79.0078125 29.41796875 C-72.85280655 15.15363013 -60.01924768 5.59301997 -46.34375 -0.703125 C-31.87200808 -6.31599686 -14.26250164 -6.14447289 0 0 Z " fill="#EFF4F9" transform="translate(84,4)"/>
<path d="M0 0 C1.33130115 0.34135927 2.66358148 0.67925956 4 1 C3.9071875 2.0828125 3.9071875 2.0828125 3.8125 3.1875 C4.03747811 6.5621716 5.19428495 8.18308452 7 11 C9.1204943 17.52999899 8.42884373 25.39159776 7 32 C7.66 32 8.32 32 9 32 C9.33 30.68 9.66 29.36 10 28 C10.99 28 11.98 28 13 28 C12.67 29.32 12.34 30.64 12 32 C11.34 32 10.68 32 10 32 C9.67 33.65 9.34 35.3 9 37 C8.01 37 7.02 37 6 37 C5.67 38.32 5.34 39.64 5 41 C4.01 41 3.02 41 2 41 C1.89945313 41.84498047 1.89945313 41.84498047 1.796875 42.70703125 C0.68418698 45.90873649 -1.2654042 47.40505326 -3.75 49.6875 C-7.78417364 53.57247234 -10.43313658 57.10649044 -12.9140625 62.0859375 C-14.82448859 65.45323528 -17.60876587 67.30438294 -21 69 C-28.07849829 69.69624573 -28.07849829 69.69624573 -31.8125 66.875 C-35.90901084 61.49101433 -37.40991466 57.83191095 -37 51 C-36.01 51 -35.02 51 -34 51 C-33.72736328 52.01320313 -33.72736328 52.01320313 -33.44921875 53.046875 C-33.19785156 53.93890625 -32.94648437 54.8309375 -32.6875 55.75 C-32.44386719 56.63171875 -32.20023438 57.5134375 -31.94921875 58.421875 C-30.96153272 61.10447904 -29.94000293 62.90595218 -28 65 C-24.72914613 65.49773863 -22.55809374 65.19056859 -19.4375 64.125 C-16.23923683 61.33677057 -15.07274052 58.22998962 -13.3125 54.41796875 C-11.51156626 51.10017713 -8.93362056 49.33492248 -6 47 C0.77241334 38.66598649 3.23189559 30.89547858 3.4375 20.3125 C3.45989746 19.58740234 3.48229492 18.86230469 3.50537109 18.11523438 C3.48294779 12.97439609 2.32416422 10.10268595 -1 6 C-4.93035661 2.54605025 -8.55580678 1.59045927 -13.8125 1.6484375 C-18.8850193 2.46366382 -22.8067947 6.02878639 -26.6875 9.1875 C-29 11 -29 11 -31.75 12 C-32.4925 12.33 -33.235 12.66 -34 13 C-34.88693303 15.04105639 -34.88693303 15.04105639 -35 17 C-35.99 16.67 -36.98 16.34 -38 16 C-37.68311392 13.06880376 -37.47368586 11.45614194 -35.3125 9.375 C-33 8 -33 8 -30.0625 6.625 C-26.87756041 5.14238435 -26.87756041 5.14238435 -24.5625 2.4375 C-17.74285895 -4.04947563 -8.22777338 -2.68984899 0 0 Z " fill="#2B97CB" transform="translate(67,23)"/>
<path d="M0 0 C1.32 0 2.64 0 4 0 C5.13492279 2.26984558 5.13220504 3.530551 5.14526367 6.05078125 C5.15164352 6.88504639 5.15802338 7.71931152 5.16459656 8.57885742 C5.16570938 9.48095947 5.1668222 10.38306152 5.16796875 11.3125 C5.17129715 12.23716064 5.17462555 13.16182129 5.17805481 14.11450195 C5.18312221 16.07144675 5.18546319 18.02840021 5.18530273 19.98535156 C5.18749109 22.98777394 5.20565386 25.98983009 5.22460938 28.9921875 C5.22754289 30.89062374 5.22952797 32.78906173 5.23046875 34.6875 C5.23765427 35.58960205 5.24483978 36.4917041 5.25224304 37.42114258 C5.24916641 38.25540771 5.24608978 39.08967285 5.24291992 39.94921875 C5.24434494 40.68487061 5.24576996 41.42052246 5.24723816 42.1784668 C5 44 5 44 3 46 C0.5 46.25 0.5 46.25 -2 46 C-4 44 -4 44 -4.125 40.59375 C-4.07676095 38.53153051 -3.99893377 36.4714784 -3.921875 34.41015625 C-3.87969769 32.60707605 -3.93385834 30.80236023 -4 29 C-4.66 28.34 -5.32 27.68 -6 27 C-6.47403036 23.93911824 -6.37037601 20.84344753 -6.375 17.75 C-6.39949219 16.90308594 -6.42398438 16.05617188 -6.44921875 15.18359375 C-6.47526937 9.60007771 -5.70398656 6.4337683 -2 2 C-1.34 1.34 -0.68 0.68 0 0 Z " fill="#2493C9" transform="translate(88,46)"/>
<path d="M0 0 C4.32345324 1.71136691 5.94015022 3.90331551 8 8 C9.48432723 19.36528983 6.56167003 27.90222438 0 37 C-2.3125 39.5 -2.3125 39.5 -4 41 C-4.99 40.67 -5.98 40.34 -7 40 C-7 39.34 -7 38.68 -7 38 C-5.948125 37.071875 -5.948125 37.071875 -4.875 36.125 C0.96221253 30.42159177 4.34757032 22.66082472 4.6875 14.5625 C4.45596692 10.72207086 4.07306316 9.12255756 2.0625 5.75 C-1.92924898 3.46900058 -5.48919328 2.98633557 -10 4 C-12.16352607 5.56200761 -12.88165716 6.47337435 -13.46875 9.0859375 C-13.52862691 13.47192134 -13.49117681 15.3760727 -10.6875 18.9375 C-8.83925077 20.35592383 -6.9385078 21.70766147 -5 23 C-5 23.99 -5 24.98 -5 26 C-9.31013828 25.51696726 -11.0235163 24.3982201 -13.75 21.0625 C-14.34296875 20.35222656 -14.9359375 19.64195313 -15.546875 18.91015625 C-18.34997976 15.22542983 -18.38457502 12.61490023 -18 8 C-13.48681826 -0.2482287 -8.79618974 -0.82544889 0 0 Z " fill="#2C97CB" transform="translate(59,31)"/>
<path d="M0 0 C0.33 0 0.66 0 1 0 C1.495 3.96 1.495 3.96 2 8 C0.68 8.33 -0.64 8.66 -2 9 C-2.06703125 9.56332031 -2.1340625 10.12664062 -2.203125 10.70703125 C-3.31581302 13.90873649 -5.2654042 15.40505326 -7.75 17.6875 C-11.78417364 21.57247234 -14.43313658 25.10649044 -16.9140625 30.0859375 C-18.82448859 33.45323528 -21.60876587 35.30438294 -25 37 C-32.07849829 37.69624573 -32.07849829 37.69624573 -35.8125 34.875 C-39.90901084 29.49101433 -41.40991466 25.83191095 -41 19 C-40.01 19 -39.02 19 -38 19 C-37.72736328 20.01320313 -37.72736328 20.01320313 -37.44921875 21.046875 C-37.19785156 21.93890625 -36.94648437 22.8309375 -36.6875 23.75 C-36.44386719 24.63171875 -36.20023438 25.5134375 -35.94921875 26.421875 C-34.96153272 29.10447904 -33.94000293 30.90595218 -32 33 C-28.72914613 33.49773863 -26.55809374 33.19056859 -23.4375 32.125 C-20.23923683 29.33677057 -19.07274052 26.22998962 -17.3125 22.41796875 C-15.51156626 19.10017713 -12.93362056 17.33492248 -10 15 C-6.64069576 10.57256746 -3.83447656 5.77385526 -1 1 C-0.67 0.67 -0.34 0.34 0 0 Z " fill="#2694C9" transform="translate(71,55)"/>
<path d="M0 0 C1.98 0 3.96 0 6 0 C6.33 0.99 6.66 1.98 7 3 C9.01508358 3.73323796 9.01508358 3.73323796 11 4 C11 4.99 11 5.98 11 7 C11.66 7 12.32 7 13 7 C14.15680104 12.0128045 14.33142241 17.00716597 13 22 C11.05460699 24.44292169 10.04384315 24.98538562 7 26 C6.67 26.99 6.34 27.98 6 29 C5.34 29 4.68 29 4 29 C4.03480469 27.865625 4.06960937 26.73125 4.10546875 25.5625 C4.39507552 14.45292034 4.39507552 14.45292034 1 4 C0.63957584 2.67373332 0.29968254 1.3412976 0 0 Z " fill="#AFD5EA" transform="translate(70,26)"/>
<path d="M0 0 C0.89203125 0.00902344 1.7840625 0.01804687 2.703125 0.02734375 C3.37859375 0.03894531 4.0540625 0.05054687 4.75 0.0625 C4.75 0.3925 4.75 0.7225 4.75 1.0625 C3.595 1.289375 2.44 1.51625 1.25 1.75 C-4.67811529 3.22940576 -9.24626313 6.43155139 -13.9375 10.25 C-16.25 12.0625 -16.25 12.0625 -19 13.0625 C-19.7425 13.3925 -20.485 13.7225 -21.25 14.0625 C-22.13693303 16.10355639 -22.13693303 16.10355639 -22.25 18.0625 C-23.24 17.7325 -24.23 17.4025 -25.25 17.0625 C-24.93311392 14.13130376 -24.72368586 12.51864194 -22.5625 10.4375 C-20.25 9.0625 -20.25 9.0625 -17.3125 7.6875 C-14.11203607 6.18107728 -14.11203607 6.18107728 -11.625 3.4375 C-8.01826589 -0.16923411 -4.95784448 -0.0652348 0 0 Z " fill="#2A96CA" transform="translate(54.25,21.9375)"/>
<path d="M0 0 C0.99 0 1.98 0 3 0 C3.55353075 11.70615034 3.55353075 11.70615034 0 16 C0.66 16 1.32 16 2 16 C2.33 14.68 2.66 13.36 3 12 C3.99 12 4.98 12 6 12 C5.25 16.75 5.25 16.75 3 19 C0.4375 19.1875 0.4375 19.1875 -2 19 C-3 18 -3 18 -3.1875 15.625 C-3 13 -3 13 -1 10 C-0.54398739 7.49103314 -0.54398739 7.49103314 -0.375 4.8125 C-0.30023438 3.91144531 -0.22546875 3.01039062 -0.1484375 2.08203125 C-0.09945312 1.39496094 -0.05046875 0.70789062 0 0 Z " fill="#2B96CA" transform="translate(37,52)"/>
<path d="M0 0 C0.66 0 1.32 0 2 0 C2 7.26 2 14.52 2 22 C0.68 22 -0.64 22 -2 22 C-2.05807043 18.89591193 -2.09361914 15.7919636 -2.125 12.6875 C-2.14175781 11.80642578 -2.15851563 10.92535156 -2.17578125 10.01757812 C-2.18222656 9.17001953 -2.18867187 8.32246094 -2.1953125 7.44921875 C-2.20578613 6.66893311 -2.21625977 5.88864746 -2.22705078 5.0847168 C-2 3 -2 3 0 0 Z " fill="#DDEBF5" transform="translate(88,50)"/>
<path d="M0 0 C0.33 0 0.66 0 1 0 C0.67 4.62 0.34 9.24 0 14 C0.99 14.33 1.98 14.66 3 15 C1.34385343 15.38218767 -0.32457024 15.71395102 -2 16 C-3 15 -3 15 -3.09765625 12.71484375 C-3.08605469 11.79832031 -3.07445313 10.88179687 -3.0625 9.9375 C-3.05347656 9.01839844 -3.04445313 8.09929687 -3.03515625 7.15234375 C-3.02355469 6.44207031 -3.01195313 5.73179688 -3 5 C-2.34 4.67 -1.68 4.34 -1 4 C-0.34786708 1.97536745 -0.34786708 1.97536745 0 0 Z M4 1 C4.33 1 4.66 1 5 1 C5 4.96 5 8.92 5 13 C4.67 13 4.34 13 4 13 C4 9.04 4 5.08 4 1 Z " fill="#1C90C7" transform="translate(87,75)"/>
<path d="M0 0 C0.99 0.33 1.98 0.66 3 1 C3.6875 3.0625 3.6875 3.0625 4 5 C6.76276177 4.47731534 9.3260876 3.89130413 12 3 C11.42655063 5.86724686 11.1385485 6.8614515 9 9 C5.5625 9.4375 5.5625 9.4375 2 9 C0 6.75 0 6.75 -1 4 C-0.6875 1.6875 -0.6875 1.6875 0 0 Z " fill="#2F98CB" transform="translate(37,77)"/>
<path d="M0 0 C0.66 0.33 1.32 0.66 2 1 C1.8125 2.8125 1.8125 2.8125 1 5 C-1.76093119 7.20874496 -3.60547852 7.95265742 -7.125 8.375 C-10 8 -10 8 -11.875 6.5 C-12.24625 6.005 -12.6175 5.51 -13 5 C-12.34 3.68 -11.68 2.36 -11 1 C-10.67 1.99 -10.34 2.98 -10 4 C-6.62563814 4.33380814 -6.62563814 4.33380814 -3 4 C-1.01760473 2.13875077 -1.01760473 2.13875077 0 0 Z " fill="#CCE3F1" transform="translate(49,81)"/>
<path d="M0 0 C2.125 0.375 2.125 0.375 4 1 C3.01 1.66 2.02 2.32 1 3 C-0.19232613 5.05003955 -0.19232613 5.05003955 -1 7 C-1.66 7 -2.32 7 -3 7 C-3.86419223 9.59257669 -4.17580932 11.34037707 -4.31640625 14.01171875 C-4.35830078 14.76904297 -4.40019531 15.52636719 -4.44335938 16.30664062 C-4.48267578 17.09232422 -4.52199219 17.87800781 -4.5625 18.6875 C-4.62727539 19.88342773 -4.62727539 19.88342773 -4.69335938 21.10351562 C-4.79927368 23.06881447 -4.90012551 25.03438496 -5 27 C-5.33 27 -5.66 27 -6 27 C-6.10845027 23.95736733 -6.18752063 20.91863796 -6.25 17.875 C-6.28351563 17.0190625 -6.31703125 16.163125 -6.3515625 15.28125 C-6.43838553 9.6377531 -5.76952653 6.48154821 -2 2 C-1.34 1.34 -0.68 0.68 0 0 Z " fill="#54AAD4" transform="translate(88,46)"/>
<path d="M0 0 C0.98484375 0.02707031 1.9696875 0.05414062 2.984375 0.08203125 C3.73203125 0.11683594 4.4796875 0.15164062 5.25 0.1875 C4.92 0.8475 4.59 1.5075 4.25 2.1875 C2.32421875 2.71484375 2.32421875 2.71484375 -0.0625 3.125 C-3.7053046 3.85240631 -5.92640436 4.68970385 -8.75 7.1875 C-9.74 7.5175 -10.73 7.8475 -11.75 8.1875 C-9.65399555 1.72481961 -6.76383093 -0.24156539 0 0 Z " fill="#2D98CB" transform="translate(53.75,30.8125)"/>
<path d="M0 0 C0.99 0 1.98 0 3 0 C2.67 1.32 2.34 2.64 2 4 C1.34 4 0.68 4 0 4 C-0.33 5.65 -0.66 7.3 -1 9 C-2.32 9.33 -3.64 9.66 -5 10 C-4.67 7.03 -4.34 4.06 -4 1 C-3.67 1.99 -3.34 2.98 -3 4 C-2.34 4 -1.68 4 -1 4 C-0.67 2.68 -0.34 1.36 0 0 Z " fill="#5EAFD7" transform="translate(77,51)"/>
<path d="M0 0 C0.33 0 0.66 0 1 0 C1.20852314 6.40629424 1.1583195 11.92972642 -1 18 C-2.32 18.33 -3.64 18.66 -5 19 C-4.71758359 17.53984709 -4.42373386 16.08190207 -4.125 14.625 C-3.96257812 13.81289063 -3.80015625 13.00078125 -3.6328125 12.1640625 C-3 10 -3 10 -1 8 C-0.54188325 6.02764667 -0.54188325 6.02764667 -0.375 3.875 C-0.189375 1.956875 -0.189375 1.956875 0 0 Z " fill="#389DCD" transform="translate(74,38)"/>
<path d="M0 0 C0.66 0 1.32 0 2 0 C2 4.62 2 9.24 2 14 C1.01 14 0.02 14 -1 14 C-1.08333357 9.1666528 -0.95261487 4.76307437 0 0 Z " fill="#CAE2F0" transform="translate(88,75)"/>
<path d="M0 0 C0.99 0 1.98 0 3 0 C2.25 4.75 2.25 4.75 0 7 C-2.625 7.125 -2.625 7.125 -5 7 C-5 5.35 -5 3.7 -5 2 C-4.34 1.67 -3.68 1.34 -3 1 C-3 1.99 -3 2.98 -3 4 C-2.34 4 -1.68 4 -1 4 C-0.67 2.68 -0.34 1.36 0 0 Z " fill="#1E90C7" transform="translate(40,64)"/>
<path d="M0 0 C0 3.3 0 6.6 0 10 C-0.99 10.33 -1.98 10.66 -3 11 C-4.52150158 7.95699684 -4.23899393 5.345915 -4 2 C-1 0 -1 0 0 0 Z " fill="#389DCD" transform="translate(45,37)"/>
<path d="M0 0 C0 0.33 0 0.66 0 1 C-1.2375 1.28875 -2.475 1.5775 -3.75 1.875 C-6.17008716 2.46828415 -8.08521105 3.04375703 -10.3125 4.1875 C-12 5 -12 5 -15 4 C-10.44224642 -0.86160382 -6.22129884 -0.43488691 0 0 Z " fill="#168DC6" transform="translate(59,22)"/>
<path d="M0 0 C0.33 0 0.66 0 1 0 C1.05389087 1.95803507 1.09274217 3.91648909 1.125 5.875 C1.14820312 6.96554688 1.17140625 8.05609375 1.1953125 9.1796875 C1 12 1 12 -1 14 C-1.66 14 -2.32 14 -3 14 C-2.01 9.38 -1.02 4.76 0 0 Z " fill="#178DC6" transform="translate(65,43)"/>
<path d="M0 0 C2.1640625 -0.29296875 2.1640625 -0.29296875 4.625 -0.1875 C5.44226562 -0.16042969 6.25953125 -0.13335938 7.1015625 -0.10546875 C8.04128906 -0.05326172 8.04128906 -0.05326172 9 0 C8.67 0.66 8.34 1.32 8 2 C5.71484375 2.4140625 5.71484375 2.4140625 2.9375 2.625 C2.01839844 2.69976562 1.09929688 2.77453125 0.15234375 2.8515625 C-0.55792969 2.90054688 -1.26820312 2.94953125 -2 3 C-1.34 2.01 -0.68 1.02 0 0 Z " fill="#138BC5" transform="translate(50,31)"/>
<path d="M0 0 C0.66 0.33 1.32 0.66 2 1 C1.67 2.98 1.34 4.96 1 7 C0.01 6.67 -0.98 6.34 -2 6 C-1.125 1.125 -1.125 1.125 0 0 Z " fill="#1F91C8" transform="translate(31,33)"/>
<path d="M0 0 C0.66 0 1.32 0 2 0 C1.75 1.875 1.75 1.875 1 4 C-1.0625 5.25 -1.0625 5.25 -3 6 C-1.125 1.125 -1.125 1.125 0 0 Z " fill="#1F91C8" transform="translate(47,80)"/>
</svg>
