<svg width="120" height="120" viewBox="0 0 120 120" fill="none" xmlns="http://www.w3.org/2000/svg">
    <path d="M65.5256 71.4019H77.345L75.508 89.1637H67.4077L65.5256 71.4019Z" fill="white"/>
    <path d="M50.8334 41.3498V40.0304H45.5557V47.7727H50.9316V46.4532H47.0605V44.4359H50.321V43.2145H47.0605V41.3498H50.8334Z" fill="#F37110"/>
    <path d="M44.7188 52.4469V51.2935H40.8582V56.9803H42.1718V54.7376H44.2703V53.6722H42.1718V52.4469H44.7188Z" fill="#F37110"/>
    <path d="M56.3289 54.5534C57.4843 53.2214 56.477 51.2935 54.9712 51.2935H52.5442V56.9803H53.8579V55.1461C54.8985 55.146 55.6904 55.2892 56.3289 54.5534ZM53.858 52.4469C54.8448 52.4469 55.2518 52.3297 55.4477 52.8715C55.6109 53.3237 55.4287 54.001 54.9312 54.001H53.8579V52.4469H53.858Z" fill="#F37110"/>
    <path d="M40.7055 65.894V63.1453H41.7437V62.2802H38.6696V63.1453H39.7129V65.894H40.7055Z" fill="#F37110"/>
    <path d="M54.7754 65.894H57.641V65.0287H56.0223L57.6104 63.0182V62.2802H54.8517V63.1453H56.4651L54.7754 65.1559V65.894Z" fill="#F37110"/>
    <path d="M47.3754 62.4099C46.1844 62.9384 45.9105 64.4267 46.7722 65.3519C47.4901 66.1236 48.7031 66.1054 49.4189 65.3671C50.8151 63.9274 49.1901 61.6052 47.3754 62.4099ZM48.7242 63.428C49.0461 63.8285 49.0132 64.6747 48.4775 64.96C48.0058 65.2107 47.2762 64.9455 47.2762 64.0922C47.2761 63.0579 48.3081 62.9096 48.7242 63.428Z" fill="#F37110"/>
    <path d="M88.0549 67.8993C87.217 67.0091 86.1675 66.3779 85.6707 66.1883C82.5117 64.9478 79.9331 63.9352 76.1528 62.4508V62.3771H80.8345C81.32 62.3771 81.7136 61.9835 81.7136 61.4981V54.5751C82.755 53.296 82.7552 51.4675 81.7136 50.1882C81.7136 46.8752 81.981 44.5241 80.1614 41.6127C79.9042 41.2009 79.3618 41.0758 78.9502 41.3332C78.5384 41.5904 78.4132 42.1327 78.6707 42.5445C80.1238 44.8697 79.9555 46.7936 79.9555 49.0304C79.6986 48.9584 79.4112 48.9148 79.1388 48.9052V48.6665C79.1388 48.245 78.8355 47.8822 78.4216 47.8025C78.3979 47.7979 76.02 47.3171 73.9805 44.9265C73.6214 44.5054 72.9643 44.5168 72.6209 44.9534C72.5755 45.0111 68.2023 50.4999 62.9713 51.4023V47.0382C62.9713 39.8742 71.3501 35.9328 76.8654 40.4853C77.2399 40.7944 77.7939 40.7414 78.103 40.367C78.4122 39.9926 78.3591 39.4385 77.9846 39.1294C74.531 36.2787 69.525 35.9631 65.7116 38.5578V32.4875C65.7116 31.116 64.5958 30 63.2242 30H40.726C40.2405 30 39.847 30.3936 39.847 30.879C39.847 31.3644 40.2406 31.758 40.726 31.758H63.2243C63.6265 31.758 63.9537 32.0852 63.9537 32.4874V40.0697C62.2544 41.8999 61.2134 44.3495 61.2134 47.038V61.4979C61.2134 61.9835 61.607 62.377 62.0924 62.377H66.7738V62.4507C66.7647 62.4543 57.2521 66.1895 57.2431 66.1933C56.5814 66.4652 55.5796 67.117 54.7768 68.003H38.0196C37.5341 68.003 37.1405 68.3966 37.1405 68.882C37.1405 69.3674 37.5342 69.7611 38.0196 69.7611H53.6083C52.7896 71.5398 52.9697 72.5748 52.9697 77.8494H32.5308C32.1286 77.8494 31.8014 77.5223 31.8014 77.1201V32.4875C31.8014 32.0853 32.1286 31.7582 32.5308 31.7582H37.5613C38.0468 31.7582 38.4403 31.3645 38.4403 30.8791C38.4403 30.3937 38.0468 30 37.5613 30H32.5308C31.1592 30 30.0433 31.116 30.0433 32.4875V77.1204C30.0433 78.492 31.1593 79.608 32.5309 79.608H52.9699V89.121C52.9699 89.6065 53.3635 90 53.8489 90H62.4767C62.9622 90 63.3557 89.6064 63.3557 89.121C63.3557 88.6356 62.9621 88.242 62.4767 88.242H61.1131V75.3858C61.1131 74.9003 60.7194 74.5068 60.2341 74.5068C59.7486 74.5068 59.355 74.9004 59.355 75.3858V88.2418H54.728C54.728 71.6857 54.6213 72.1306 55.0264 70.9627C55.5623 69.4185 56.8584 68.2697 57.9077 67.8213C59.1142 67.3474 63.0182 65.8144 64.2432 65.3334C64.3671 66.5033 66.5792 87.3798 66.6706 88.2418H65.7657C65.2801 88.2418 64.8866 88.6355 64.8866 89.1209C64.8866 89.6063 65.2803 89.9999 65.7657 89.9999C65.8255 89.9999 67.7055 89.9999 67.6465 89.9999C68.2234 89.9999 88.5007 89.9999 89.0778 89.9999C89.5633 89.9999 89.9569 89.6063 89.9569 89.1209V72.7898C89.9567 70.9441 89.3413 69.2663 88.0549 67.8993ZM68.4383 88.2417L66.7426 72.238H76.1414L74.4863 88.2417H68.4383ZM79.9554 60.6188H76.4073C77.8179 59.442 78.7947 57.7635 79.0629 55.86C79.3654 55.8558 79.6784 55.8103 79.9554 55.7329V60.6188ZM79.89 53.8628C79.6559 54.0017 79.3922 54.0806 79.1387 54.0987V50.6643C80.7947 50.7829 81.3541 52.994 79.89 53.8628ZM65.5459 52.4998C69.1824 51.1045 72.0881 48.211 73.341 46.8166C74.892 48.3403 76.4859 49.0379 77.3807 49.3346C77.3807 50.1184 77.3807 54.0839 77.3807 54.7987C77.3807 58.8541 73.3204 61.6983 69.3646 60.2644C67.1383 59.4466 65.5457 57.3052 65.5457 54.7987L65.5459 52.4998ZM62.9713 53.1815C63.246 53.1421 63.5185 53.0933 63.7878 53.0335V54.7987C63.7878 57.1353 64.8514 59.2278 66.519 60.619H62.9713V53.1815ZM68.5319 61.8285C70.4004 62.5831 72.6082 62.5498 74.3947 61.8285C74.3947 63.9904 74.1192 63.5409 76.9862 64.6668L76.3703 70.48H66.5564L65.9405 64.6668C68.8336 63.5307 68.5319 63.9603 68.5319 61.8285ZM88.1986 88.2417H83.6503V75.3858C83.6503 74.9003 83.2567 74.5068 82.7713 74.5068C82.2859 74.5068 81.8923 74.9004 81.8923 75.3858V88.2418H76.2561L78.6834 65.3334C79.4167 65.6213 84.2748 67.529 85.0175 67.8208C85.1457 67.8759 86.4467 68.4612 87.3448 69.8329C88.4765 71.5619 88.1986 71.3808 88.1986 88.2417Z" fill="#F37110"/>
    <path d="M37.1404 59.4681C37.1404 59.9536 37.534 60.3472 38.0194 60.3472H58.291C58.7766 60.3472 59.1701 59.9535 59.1701 59.4681C59.1701 58.9827 58.7764 58.5891 58.291 58.5891H38.0195C37.534 58.589 37.1404 58.9826 37.1404 59.4681Z" fill="#F37110"/>
    <circle cx="60" cy="60" r="49" stroke="#F37110" stroke-width="2"/>
    <circle cx="60" cy="60" r="59.5" stroke="#E5E5E5"/>
</svg>