<svg width="120" height="120" viewBox="0 0 120 120" fill="none" xmlns="http://www.w3.org/2000/svg">
    <circle cx="60" cy="60" r="60" fill="#F2F5FA"/>
    <path d="M88.1856 72.0968C87.5807 71.492 85.7259 69.7581 82.742 69.2742C79.4356 68.75 76.9356 70.0807 76.2501 70.4839C73.9114 71.9758 70.2823 73.7904 65.5646 74.1533C62.0162 74.4355 59.1936 73.7904 57.6614 73.4678C55.8872 73.0646 54.5969 72.5807 47.7017 69.5162C45.363 68.4678 43.3872 67.621 41.9759 66.9759C41.9759 66.9759 39.0323 65.6049 37.0969 65.2017" stroke="#1D86BC" stroke-width="2" stroke-miterlimit="10" stroke-linecap="round" stroke-linejoin="round"/>
    <path d="M67.7018 73.8711C68.8712 74.234 73.347 75.7663 74.3147 79.8792" stroke="#1D86BC" stroke-width="2" stroke-miterlimit="10" stroke-linecap="round" stroke-linejoin="round"/>
    <path d="M34.2741 58.9517C31.5725 60.8065 29.2338 62.1775 27.7015 63.0242C29.2741 62.742 31.3709 62.3388 33.8306 61.6936C39.0322 60.3226 43.629 57.5 48.5886 55.4436C53.508 53.3871 58.8306 52.7017 64.1128 53.3468C67.379 53.7501 70.5241 54.6775 73.629 55.8065C76.5322 56.8549 79.3548 58.3871 82.4596 58.8307C83.1451 58.9113 86.8951 59.3952 90.0806 57.863C90.1209 57.863 90.1612 57.8226 90.1612 57.8226C92.4596 56.6936 94.0725 55.363 95.2015 54.1533" stroke="#1D86BC" stroke-width="2" stroke-miterlimit="10" stroke-linecap="round" stroke-linejoin="round"/>
    <path d="M74.153 71.7742C74.153 71.7742 78.9917 71.3306 81.7337 76.4919" stroke="#1D86BC" stroke-width="2" stroke-miterlimit="10" stroke-linecap="round" stroke-linejoin="round"/>
    <path d="M62.3789 74.1934C62.3789 74.1934 65.0402 76.1288 63.9918 79.0321" stroke="#1D86BC" stroke-width="2" stroke-miterlimit="10" stroke-linecap="round" stroke-linejoin="round"/>
    <path d="M76.1691 70.6049C76.8546 70.121 77.8626 69.4355 79.1126 68.6694C79.1126 68.6694 79.1126 68.6694 79.1529 68.6291C81.1691 66.6532 82.8626 64.3145 84.0723 61.7339L84.5562 60.7258" stroke="#1D86BC" stroke-width="2" stroke-miterlimit="10" stroke-linecap="round" stroke-linejoin="round"/>
    <path d="M71.1289 57.4194C71.7337 58.9113 71.9353 60.5242 71.6934 62.2178C70.9676 67.2984 66.2499 70.8468 61.1692 70.121C56.0886 69.3952 52.5402 64.6774 53.266 59.5968C53.4273 58.5887 53.7095 57.621 54.1531 56.7339" stroke="#1D86BC" stroke-width="2" stroke-miterlimit="10" stroke-linecap="round" stroke-linejoin="round"/>
    <path d="M76.0886 56.7742C76.0886 56.7742 83.8305 57.379 85.6854 52.7822" stroke="#1D86BC" stroke-width="2" stroke-miterlimit="10" stroke-linecap="round" stroke-linejoin="round"/>
    <path d="M68.1855 54.113C68.1855 54.113 73.5484 54.0727 75.242 51.1694" stroke="#1D86BC" stroke-width="2" stroke-miterlimit="10" stroke-linecap="round" stroke-linejoin="round"/>
    <path d="M62.6209 65.9273C64.9147 65.9273 66.7742 64.0678 66.7742 61.7741C66.7742 59.4803 64.9147 57.6208 62.6209 57.6208C60.3272 57.6208 58.4677 59.4803 58.4677 61.7741C58.4677 64.0678 60.3272 65.9273 62.6209 65.9273Z" stroke="#1D86BC" stroke-width="2" stroke-miterlimit="10" stroke-linecap="round" stroke-linejoin="round"/>
    <path d="M62.8224 60.4839C63.5482 60.6049 64.0724 61.25 63.9515 61.9758C63.8305 62.7016 63.1853 63.2258 62.4595 63.1049C61.7337 62.9839 61.2095 62.3387 61.3305 61.6129" stroke="#1D86BC" stroke-width="2" stroke-miterlimit="10" stroke-linecap="round" stroke-linejoin="round"/>
    <path d="M83.0243 51.3306C81.613 50.3225 79.7581 50.4435 78.3469 49.6773C76.8549 48.8709 75.6856 47.0967 74.1936 46.5725C72.621 45.9677 70.8872 46.6532 69.3549 46.3306C67.742 45.9677 66.2501 44.5967 64.7178 44.5161C63.1049 44.3951 61.5323 45.6048 60.0404 45.7257C58.4275 45.8467 56.734 44.9999 55.2017 45.3225C53.5888 45.6854 52.3388 47.258 50.8872 47.8225C49.3146 48.387 47.5001 47.9435 46.1291 48.6693C44.6372 49.4354 43.6291 51.2902 42.3791 52.137C40.8065 53.0644 38.9517 53.0644 37.8227 53.9515C35.4436 55.8467 36.0082 57.0967 34.2743 58.9515" stroke="#1D86BC" stroke-width="2" stroke-miterlimit="10" stroke-linecap="round" stroke-linejoin="round"/>
</svg>